<?xml version="1.0" encoding="utf-8"?>
<!-- Generator: Adobe Illustrator 22.0.1, SVG Export Plug-In . SVG Version: 6.00 Build 0)  -->
<svg version="1.0" id="Layer_1" xmlns="http://www.w3.org/2000/svg" xmlns:xlink="http://www.w3.org/1999/xlink" x="0px" y="0px"
	 viewBox="0 0 31.7 31.7" style="enable-background:new 0 0 31.7 31.7;" xml:space="preserve">
<style type="text/css">
	.st0{fill:#9E191B;}
</style>
<g>
	<path class="st0" d="M15.8,31.7C7.1,31.7,0,24.6,0,15.8C0,7.1,7.1,0,15.8,0s15.8,7.1,15.8,15.8C31.7,24.6,24.6,31.7,15.8,31.7z
		 M15.8,3C8.8,3,3,8.8,3,15.8c0,7.1,5.8,12.8,12.8,12.8c7.1,0,12.8-5.8,12.8-12.8C28.7,8.8,22.9,3,15.8,3z"/>
</g>
<path class="st0" d="M23,14.3h-5.7V6.2c0-0.8-0.7-1.5-1.5-1.5s-1.5,0.7-1.5,1.5v9.6c0,0.2,0.1,0.4,0.2,0.6l-5.3,5.3
	C9,22,9,22.3,9.2,22.5c0.1,0.1,0.2,0.1,0.4,0.1s0.3,0,0.4-0.1l5.3-5.3c0.2,0.1,0.4,0.1,0.6,0.1H23c0.8,0,1.5-0.7,1.5-1.5
	S23.8,14.3,23,14.3z"/>
</svg>
