<?xml version="1.0" encoding="utf-8"?>
<!-- Generator: Adobe Illustrator 22.0.1, SVG Export Plug-In . SVG Version: 6.00 Build 0)  -->
<svg version="1.0" id="Layer_1" xmlns="http://www.w3.org/2000/svg" xmlns:xlink="http://www.w3.org/1999/xlink" x="0px" y="0px"
	 viewBox="0 0 31.7 31.7" style="enable-background:new 0 0 31.7 31.7;" xml:space="preserve">
<style type="text/css">
	.st0{fill:#FFFFFF;}
</style>
<g>
	<circle class="st0" cx="15.8" cy="15.8" r="14.3"/>
	<path d="M15.8,31.7C7.1,31.7,0,24.6,0,15.8C0,7.1,7.1,0,15.8,0s15.8,7.1,15.8,15.8C31.7,24.6,24.6,31.7,15.8,31.7z M15.8,3
		C8.8,3,3,8.8,3,15.8c0,7.1,5.8,12.8,12.8,12.8c7.1,0,12.8-5.8,12.8-12.8C28.7,8.8,22.9,3,15.8,3z"/>
</g>
<g>
	<polyline class="st0" points="15.8,6.2 15.8,15.8 23,15.8 	"/>
	<path d="M23,17.3h-7.2c-0.8,0-1.5-0.7-1.5-1.5V6.2c0-0.8,0.7-1.5,1.5-1.5s1.5,0.7,1.5,1.5v8.1H23c0.8,0,1.5,0.7,1.5,1.5
		S23.8,17.3,23,17.3z"/>
</g>
<g>
	<line class="st0" x1="15.8" y1="15.8" x2="9.5" y2="22.2"/>
	<path d="M9.5,22.7c-0.1,0-0.3,0-0.4-0.1C9,22.3,9,22,9.2,21.8l6.3-6.3c0.2-0.2,0.5-0.2,0.7,0s0.2,0.5,0,0.7l-6.3,6.3
		C9.8,22.6,9.7,22.7,9.5,22.7z"/>
</g>
</svg>
