<?xml version="1.0" encoding="utf-8"?>
<!-- Generator: Adobe Illustrator 22.0.1, SVG Export Plug-In . SVG Version: 6.00 Build 0)  -->
<svg version="1.0" xmlns="http://www.w3.org/2000/svg" xmlns:xlink="http://www.w3.org/1999/xlink" x="0px" y="0px"
	 viewBox="0 0 247 32.2" style="enable-background:new 0 0 247 32.2;" xml:space="preserve">
<style type="text/css">
	.st0{fill:#010202;}
	.st1{fill:#7B7B7B;}
	.st2{fill:#FFFFFF;}
	.st3{fill:#333333;}
</style>
<g id="TEXTO-">
		<path class="st3" d="M0,19.5l0.9-1.1c0.7,0.6,1.5,1,2.4,1c1,0,1.6-0.5,1.6-1.2c0-0.8-0.6-1-1.4-1.3l-1.3-0.5
			c-0.9-0.4-1.9-1.1-1.9-2.4c0-1.5,1.3-2.6,3.1-2.6c1.1,0,2.1,0.4,2.8,1.2l-0.8,1c-0.6-0.5-1.2-0.8-2-0.8c-0.9,0-1.4,0.4-1.4,1.1
			c0,0.7,0.7,1,1.5,1.3l1.2,0.5c1.1,0.5,1.9,1.1,1.9,2.5c0,1.5-1.2,2.7-3.3,2.7C2.1,20.8,0.9,20.3,0,19.5z"/>
		<path class="st3" d="M8.3,11.5h5.5v1.4H9.9v2.3h3.3v1.4H9.9v2.7h4v1.4H8.3V11.5z"/>
		<path class="st3" d="M15.8,11.5h1.6v7.8h3.8v1.4h-5.4V11.5z"/>
		<path class="st3" d="M22.8,11.5h5.5v1.4h-3.9v2.3h3.3v1.4h-3.3v2.7h4v1.4h-5.7V11.5z"/>
		<path class="st3" d="M29.9,16.1c0-3,1.9-4.8,4.2-4.8c1.1,0,2.1,0.5,2.6,1.2l-0.9,1c-0.5-0.5-1-0.8-1.7-0.8c-1.5,0-2.6,1.3-2.6,3.3
			c0,2.1,1,3.4,2.5,3.4c0.8,0,1.4-0.4,2-0.9l0.9,1c-0.7,0.9-1.7,1.3-2.9,1.3C31.7,20.8,29.9,19.1,29.9,16.1z"/>
		<path class="st3" d="M38.4,11.5H40v9.2h-1.6V11.5z"/>
		<path class="st3" d="M41.9,16c0-3,1.7-4.7,4-4.7s4,1.8,4,4.7c0,3-1.7,4.8-4,4.8S41.9,19,41.9,16z M48.3,16c0-2.1-0.9-3.3-2.4-3.3
			c-1.4,0-2.4,1.2-2.4,3.3c0,2.1,0.9,3.4,2.4,3.4C47.4,19.4,48.3,18.1,48.3,16z"/>
		<path class="st3" d="M51.8,11.5h1.7l2.8,5.1l0.9,2h0.1c-0.1-0.9-0.2-2.1-0.2-3.1v-4h1.5v9.2H57l-2.8-5.2l-0.9-1.9h-0.1
			c0.1,1,0.2,2.1,0.2,3.1v4h-1.5V11.5z"/>
		<path class="st3" d="M61,11.5h5.5v1.4h-3.9v2.3h3.3v1.4h-3.3v2.7h4v1.4H61V11.5z"/>
		<path class="st3" d="M71.3,16.6v-5.1h1.6v5.3c0,2,0.7,2.7,1.9,2.7c1.1,0,1.9-0.7,1.9-2.7v-5.3h1.6v5.1c0,3-1.3,4.2-3.5,4.2
			C72.6,20.8,71.3,19.6,71.3,16.6z"/>
		<path class="st3" d="M80.5,11.5h1.8l1.6,4.5c0.2,0.6,0.4,1.2,0.6,1.8h0.1c0.2-0.6,0.4-1.2,0.6-1.8l1.6-4.5h1.8v9.2h-1.5v-4.2
			c0-0.8,0.1-2.1,0.2-2.9h-0.1l-0.7,2.1L85,19.8h-1l-1.5-4.1l-0.7-2.1h-0.1c0.1,0.8,0.2,2.1,0.2,2.9v4.2h-1.5V11.5z"/>
		<path class="st3" d="M92.7,11.5h1.9l3,9.2h-1.7l-1.4-4.9c-0.3-1-0.6-2-0.8-3h-0.1c-0.3,1-0.5,2.1-0.8,3l-1.4,4.9h-1.7L92.7,11.5z
			 M91.5,16.9h4.3v1.3h-4.3V16.9z"/>
		<path class="st3" d="M101.4,16.6v-5.1h1.6v5.3c0,2,0.7,2.7,1.9,2.7c1.1,0,1.9-0.7,1.9-2.7v-5.3h1.6v5.1c0,3-1.3,4.2-3.5,4.2
			C102.8,20.8,101.4,19.6,101.4,16.6z"/>
		<path class="st3" d="M110.6,11.5h1.7l2.8,5.1l0.9,2h0.1c-0.1-0.9-0.2-2.1-0.2-3.1v-4h1.5v9.2h-1.7l-2.8-5.2l-0.9-1.9H112
			c0.1,1,0.2,2.1,0.2,3.1v4h-1.5V11.5z"/>
		<path class="st3" d="M119.8,11.5h1.6v9.2h-1.6V11.5z"/>
		<path class="st3" d="M123.8,11.5h2.4c2.8,0,4.5,1.5,4.5,4.5s-1.7,4.6-4.4,4.6h-2.5V11.5z M126.1,19.3c1.8,0,2.9-1,2.9-3.3
			s-1.1-3.2-2.9-3.2h-0.7v6.5H126.1z"/>
		<path class="st3" d="M134.2,11.5h1.9l3,9.2h-1.7l-1.4-4.9c-0.3-1-0.6-2-0.8-3h-0.1c-0.3,1-0.5,2.1-0.8,3l-1.4,4.9h-1.7L134.2,11.5
			z M132.9,16.9h4.3v1.3h-4.3V16.9z"/>
		<path class="st3" d="M140.1,11.5h2.4c2.8,0,4.5,1.5,4.5,4.5s-1.7,4.6-4.4,4.6h-2.5V11.5z M142.4,19.3c1.8,0,2.9-1,2.9-3.3
			s-1.1-3.2-2.9-3.2h-0.7v6.5H142.4z"/>
		<path class="st3" d="M148.9,11.5h5.5v1.4h-3.9v2.3h3.3v1.4h-3.3v2.7h4v1.4h-5.7V11.5z"/>
		<path class="st3" d="M159.2,11.5h2.4c2.8,0,4.5,1.5,4.5,4.5s-1.7,4.6-4.4,4.6h-2.5V11.5z M161.5,19.3c1.8,0,2.9-1,2.9-3.3
			s-1.1-3.2-2.9-3.2h-0.7v6.5H161.5z"/>
		<path class="st3" d="M167.5,16c0-3,1.7-4.7,4-4.7s4,1.8,4,4.7c0,3-1.7,4.8-4,4.8S167.5,19,167.5,16z M173.9,16
			c0-2.1-0.9-3.3-2.4-3.3c-1.4,0-2.4,1.2-2.4,3.3c0,2.1,0.9,3.4,2.4,3.4C172.9,19.4,173.9,18.1,173.9,16z"/>
		<path class="st3" d="M180.2,11.5h1.8l1.6,4.5c0.2,0.6,0.4,1.2,0.6,1.8h0.1c0.2-0.6,0.4-1.2,0.6-1.8l1.6-4.5h1.8v9.2h-1.5v-4.2
			c0-0.8,0.1-2.1,0.2-2.9h-0.1l-0.7,2.1l-1.5,4.1h-1l-1.5-4.1l-0.7-2.1h-0.1c0.1,0.8,0.2,2.1,0.2,2.9v4.2h-1.5V11.5z"/>
		<path class="st3" d="M190.6,11.5h2.9c2,0,3.5,0.7,3.5,2.8c0,2-1.5,3-3.5,3h-1.3v3.4h-1.6V11.5z M193.4,16c1.4,0,2-0.5,2-1.7
			c0-1.1-0.7-1.5-2.1-1.5h-1.1V16H193.4z"/>
		<path class="st3" d="M198.7,11.5h5.5v1.4h-3.9v2.6h3.3v1.4h-3.3v3.8h-1.6V11.5z"/>
	</g>

</svg>
