<?xml version="1.0" encoding="utf-8"?>
<!-- Generator: Adobe Illustrator 22.0.1, SVG Export Plug-In . SVG Version: 6.00 Build 0)  -->
<svg version="1.0" id="Layer_1" xmlns="http://www.w3.org/2000/svg" xmlns:xlink="http://www.w3.org/1999/xlink" x="0px" y="0px"
	 viewBox="0 0 389.5 55.8" style="enable-background:new 0 0 389.5 55.8;" xml:space="preserve">
<style type="text/css">
	.st0{fill:#1D1D1B;}
	.st1{fill:none;stroke:#6C6B69;stroke-miterlimit:10;}
	.st2{fill:#6C6B69;}
	.st3{fill:#9C1915;}
</style>
<g>
	<path class="st0" d="M326,52h-1.9l-2.9-4.1c-0.5,0.1-1.1,0.1-1.6,0.1h-1.8v4h-1.6V37h3.4c4.1,0,6.2,2.3,6.2,5.5
		c0,2.2-1.1,4-3.1,4.9L326,52z M319.6,46.7c3.4,0,4.7-1.7,4.7-4.1c0-2.4-1.3-4.1-4.7-4.1h-1.7v8.2H319.6z"/>
	<path class="st0" d="M328.2,47.5c0-2.7,2.1-4.8,4.9-4.8c2.7,0,4.8,2.1,4.8,4.8c0,2.7-2.1,4.7-4.8,4.7
		C330.3,52.2,328.2,50.1,328.2,47.5z M336.3,47.5c0-2-1.3-3.4-3.2-3.4c-2,0-3.3,1.5-3.3,3.4c0,2,1.3,3.4,3.3,3.4
		C335,50.9,336.3,49.4,336.3,47.5z"/>
	<path class="st0" d="M341,42.9h1.5l0,1.8c0.6-1.4,1.6-2,2.7-2c0.7,0,1.2,0.2,1.6,0.4l-0.6,1.3c-0.3-0.2-0.7-0.4-1.3-0.4
		c-1.3,0-2.4,0.9-2.4,3.1V52H341V42.9z"/>
	<path class="st0" d="M354.7,46.4c0-1.8-0.8-2.4-2.1-2.4c-1.3,0-2.1,0.6-2.7,1.3l-0.9-0.9c0.8-1.1,2-1.8,3.7-1.8
		c2,0,3.6,1.2,3.6,3.7V52h-1.5l0.1-1.4c-0.6,0.9-1.6,1.5-3,1.5c-1.9,0-3.4-0.9-3.4-2.8c0-1.9,1.5-2.8,3.5-2.8h2.8V46.4z M351.9,47.8
		c-1.2,0-2.1,0.4-2.1,1.5c0,1,0.8,1.6,2.2,1.6c1.4,0,2.6-0.8,2.6-2v-1.1H351.9z"/>
	<path class="st0" d="M359.5,39.2c0-0.6,0.5-1.1,1.1-1.1s1.1,0.5,1.1,1.1c0,0.6-0.5,1.1-1.1,1.1S359.5,39.8,359.5,39.2z M359.9,42.9
		h1.5V52h-1.5V42.9z"/>
	<path class="st0" d="M365.2,42.9h1.5l0,1.7c0.6-1.2,1.6-1.9,2.9-1.9c1.4,0,2.4,0.8,2.8,1.9c0.7-1.2,1.8-1.9,3.2-1.9
		c2,0,3.2,1.3,3.2,3.5V52h-1.5v-5.6c0-1.5-0.6-2.3-2-2.3c-1.5,0-2.4,1-2.4,2.8V52h-1.5v-5.6c0-1.5-0.6-2.3-2-2.3
		c-1.5,0-2.5,1-2.5,2.8V52h-1.5V42.9z"/>
	<path class="st0" d="M388,46.4c0-1.8-0.8-2.4-2.1-2.4c-1.3,0-2.1,0.6-2.7,1.3l-0.9-0.9c0.8-1.1,2-1.8,3.7-1.8c2,0,3.6,1.2,3.6,3.7
		V52H388l0.1-1.4c-0.6,0.9-1.6,1.5-3,1.5c-1.9,0-3.4-0.9-3.4-2.8c0-1.9,1.5-2.8,3.5-2.8h2.8V46.4z M385.2,47.8
		c-1.2,0-2.1,0.4-2.1,1.5c0,1,0.8,1.6,2.2,1.6c1.4,0,2.6-0.8,2.6-2v-1.1H385.2z"/>
</g>
<line class="st1" x1="300.4" y1="5.4" x2="300.4" y2="55.8"/>
<g>
	<g>
		<path class="st2" d="M315.5,6.9h0.4L327,19.2l11-12.3h0.4v22.9H334v-8.5c0-1.5,0.2-4,0.2-4s-1.4,2-2.4,3.2l-4.5,5h-0.4l-4.5-5
			c-1.1-1.2-2.4-3.2-2.4-3.2s0.2,2.4,0.2,4v8.5h-4.5V6.9z"/>
		<path class="st2" d="M343.2,7.1h6.3c6.3,0,10.1,3.3,10.1,8.8s-3.8,8.7-10.1,8.7h-1.6v5.2h-4.7V7.1z M349.3,20.6
			c3.8,0,5.5-1.5,5.5-4.6c0-3.1-1.7-4.7-5.5-4.7h-1.5v9.3H349.3z"/>
		<path class="st2" d="M363.3,7.1h14.6v4.1h-9.9v7.5h9v4.2h-9v6.9h-4.7V7.1z"/>
	</g>
</g>
<g>
	<g>
		<path class="st3" d="M91.2,37.4c0,0.1-0.1,0.2-0.2,0.3c-1,1.5-2.5,3.3-4.5,5.5c-3.4,3.6-6.1,5.7-8.2,6.4c-1,0.4-2,0.5-3,0.5
			c-3.3-0.1-5-2.4-5-7.2c0-2.5,0.3-4.9,0.9-7.2c0.6-2.3,1.1-4.1,1.5-5.4c0.4-1.3,0.9-2.8,1.5-4.4c0.6-1.7,1.1-3,1.5-3.9
			c1.3-3.3,2.1-5.3,2.4-6.1c0.3-0.8,0.5-1.5,0.5-2.1c0-0.6-0.2-1-0.5-1.2c-0.3-0.2-0.7-0.3-1.2-0.3c-0.5,0-1.3,0.5-2.4,1.4
			c-3.9,3.3-8.3,8.6-13.2,15.8s-8.6,13.8-10.6,17.8c-0.4,0.9-0.8,1.3-1.2,1.3c-0.4,0-0.8-0.4-1.3-1.1c-0.4-0.7-0.7-1.3-0.7-1.6
			c0-0.3,0-0.5,0.1-0.6c1.3-3.3,2.6-7.8,3.2-11.6c0.6-3.8,0.9-6.9,0.9-9.3c0-8.6-1.9-12.8-5.5-12.8c-3.4,0-9.7,4.1-18.7,12.4
			l-4.2,3.7c-2.7,2.5-5.6,5.6-8.9,9.3c-3.2,3.7-5.5,6.4-6.9,8.2c-0.6,0.8-1,1.5-1.4,2.1v0l-0.3,0.6c-0.4,0.5-0.7,1.1-1,1.6
			c0,0,0,0-0.1,0.1c-0.3,0.4-0.5,0.6-0.7,0.6c-0.4,0-0.7-0.3-1.2-0.9c-0.3-0.4-0.5-0.7-0.5-1v0c0.3-1.1,0.7-2.5,1.3-4.1
			c0.8-2.2,2.7-6.7,5.9-13.5c3.9-8.3,6.3-15.2,7.2-20.8c0.7-4.3,0.3-6.6-1.4-6.9c-1.2-0.2-2.9,0.6-5.2,2.5c-3.6,3.1-6.6,6.3-9,9.5
			c-0.3,0.4-0.5,0.5-0.7,0.2C0,14.6,0,14.4,0,14.2c0-0.2,0.1-0.3,0.2-0.4c1.2-1.8,2.9-4,5.3-6.4c3.8-4.2,6.7-6.5,8.7-7
			c1-0.3,1.9-0.4,2.8-0.2c3,0.6,3.9,4,2.9,10.2c-0.5,3.2-1.3,6.3-2.4,9.3c-1.1,3-1.9,5.2-2.5,6.8c-0.6,1.6-1.4,3.4-2.3,5.6
			c-0.9,2.1-1.7,3.8-2.2,4.9c-0.2,0.5-0.5,1-0.7,1.5c1.2-1.4,2.5-2.9,3.9-4.4c4.4-4.7,8.1-8.5,11.1-11.3l4.8-4.4
			c6.9-5.8,11.8-8.8,14.8-9h1.1c4,0,6.8,1.3,8.3,4c1.3,2.2,2,4.8,2,7.8c0,4.5-1.4,10.8-4.1,19.1c-0.5,1.5-1,3.1-0.9,3.2
			c0.1,0,0.2-0.1,0.4-0.4c0.2-0.3,0.8-1.8,1.3-2.4c0.4-0.7,1.4-2.3,3.1-5c5.8-9.8,11.7-17.9,17.8-24.4c2-2.1,4-3.1,5.9-3.1
			c1.2,0,2.1,0.4,2.7,1.2c0.6,0.8,0.9,1.7,0.9,2.7s-0.2,2.3-0.6,4c-0.4,1.7-1.7,5.3-3.9,10.8c-2.7,6.7-4,12.1-4,16.4
			c0,3.3,0.9,4.9,2.7,4.9c1.3,0,3.1-0.8,5.2-2.5c3.3-2.8,6-5.5,8-8.3c0.3-0.4,0.5-0.4,0.7-0.2C91.1,37.1,91.2,37.3,91.2,37.4z"/>
	</g>
	<path class="st3" d="M114.6,37.4c-0.2-0.2-0.4-0.2-0.6,0c-0.1,0.1-0.1,0.1-0.2,0.2c-0.1,0.2-0.3,0.4-0.4,0.6
		c-0.2,0.2-0.3,0.5-0.5,0.7c-3,4-7.1,7.1-12.2,9.2c-2,0.8-3.7,1.2-5.2,1.2c-1.4,0-2.4-0.4-3-1.1c-0.7-0.7-1-1.4-1-2.2
		c0-0.8,0.1-1.6,0.4-2.4c0.8-2.6,2.5-5.3,5.1-8c2.6-2.7,5.1-4.7,7.5-5.8c1.1-0.5,2-0.8,2.6-0.8c0.8,0,1.2,0.4,1.2,1.3
		c0,0.8-0.3,1.7-1,2.6c-1.6,1.9-4,3.8-7.4,5.6c-1.8,1-3.3,1.6-4.5,1.7c-0.1,0-0.2,0-0.4,0.1c-0.2,0.1-0.2,0.2-0.2,0.4
		c0.1,0.4,0.4,0.7,1.1,0.6c2-0.2,4.4-0.9,7.2-2.3c2.8-1.4,4.9-3,6.1-4.9c0.8-0.9,1.1-2,1.1-3.3c0-2.6-1.4-3.9-4.1-3.9
		c-2.4,0-5.7,1.5-9.8,4.5c-3.4,2.5-5.8,4.9-7.2,7.2c-0.3,0.5-0.6,1.1-0.9,1.6c-0.3,0.7-0.5,1.4-0.7,2c-0.2,0.8-0.3,1.6-0.3,2.3
		c0,1.2,0.3,2.2,0.8,3.1c1.5,2.2,4,3.3,7.6,3.3c4.2,0,8.6-1.9,13.1-5.7c1.7-1.4,3.2-3,4.4-4.7c0.5-0.6,0.9-1.3,1.3-2
		c0.2-0.2,0.2-0.4,0.2-0.5C114.9,37.6,114.8,37.5,114.6,37.4z"/>
	<path class="st3" d="M158.7,37.3c-0.2-0.1-0.4-0.1-0.5,0v0c-0.1,0-0.1,0.1-0.2,0.2c-1.4,2-3.3,4.1-5.6,6.2
		c-2.3,2.1-4.2,3.5-5.5,4.2c-1.3,0.7-2.3,0.7-3.1-0.2c-0.4-0.4-0.6-1-0.6-1.7c0-0.7,0.1-1.5,0.2-2.4c0.1-0.9,2.2-5.5,3.1-7.8
		c0.9-2.3,1.7-4,2.5-5.1c0.8-1.2,1.1-1.9,1.1-2.2c0-0.5-0.4-0.8-1.1-0.8c-0.7,0-2.3,0-4.3,1.3c-3.4,2.1-9.9,11.4-14.1,15.3
		c0.3-0.4,3.7-6.6,4.4-8.2c0.7-1.6,1.3-2.9,1.9-4c0.5-1.1,0.8-2.1,0.8-2.9c0-0.9-0.2-1.4-0.6-1.7c-0.4-0.3-0.9-0.4-1.3-0.4
		c-2.1,0-6,2.9-11.6,8.8c-2.8,2.9-5.1,5.5-6.9,7.7c2.6-7,4.2-11,4.8-12.2c0.5-1.2,0.8-2,0.8-2.3c0-0.5-0.4-0.9-1.1-1.1
		c-0.7-0.2-1.4-0.2-1.9,0c-0.9,0.3-1.5,1.3-1.8,3.1c-0.9,1.8-2.3,3.9-4,6.3c-0.2,0.3-0.4,0.5-0.6,0.8c-0.1,0.2-0.2,0.3-0.4,0.5
		c-0.1,0.1-0.1,0.2-0.2,0.3c-0.2,0.4-0.4,0.9-0.4,1.4c0,0.6,0.2,0.7,0.6,0.3c0.1-0.1,0.2-0.2,0.3-0.3c0.8-0.9,1.8-2.1,2.8-3.7
		c-2.9,8.5-4.5,12.8-4.6,13.1c-0.2,0.3-0.2,0.5-0.2,0.7c0,0.2,0.2,0.2,0.7,0.2c0.5,0,1.6-0.5,3.4-1.4c0.4-0.3,2.1-2.4,5.1-6.4
		c-0.6,0.7,1.2-2.9,7-8.3c2.4-2.1,4-3.1,4.9-3.1c0.4,0,0.6,0.2,0.6,0.6c0,0.4-3.9,7.5-5.6,10.8c-1.8,3.3-2.7,5.5-2.8,6.4
		c-0.1,0.9,0.5,1.3,1.6,1.1c1.1-0.2,3.6-1.9,4.1-3.1c0,0,7-8.8,9.3-11.3c1.5-1.8,3-4.4,5-5.2c-0.6,0.9-1.3,2.5-2.2,4.8
		c-0.9,2.4-3,7.8-3,10.1c0,0.8,0.1,1.5,0.4,2.3c0.3,0.8,0.9,1.4,2,2c1.1,0.6,2.8,0.5,5.1-0.3c2.2-0.8,4.9-2.9,8.1-6.4
		c0.8-0.8,1.4-1.6,2-2.3c0.9-1.1,1.6-2.1,2.1-2.9c0.1-0.2,0.1-0.3,0.1-0.4C159.1,37.6,159,37.5,158.7,37.3z"/>
	<path class="st3" d="M209.4,37.7c0,0.1,0,0.3-0.1,0.4c-0.4,0.7-0.9,1.5-1.6,2.3c-0.1,0.1-0.1,0.2-0.2,0.3c-0.6,0.8-1.4,1.7-2.3,2.6
		c-2,2.1-3.9,3.8-5.7,5.1c-1.8,1.4-3.8,2.1-5.9,2.1c-2.6,0-3.9-1.5-3.9-4.6c0-3.1,2.2-6.9,6.6-11.4c0.4-0.3,0.6-0.6,0.8-0.8l0.5-0.8
		c0.7-1,1-1.6,1-1.8l-0.2-0.7c-0.2-0.6-1-1-2.5-1.3c-1.5-0.3-2.6-0.4-3.5-0.4h-0.1c-1,1.3-2.3,2.8-3.4,4c-1.2,1.2-2.4,2.4-3.8,3.5
		c-1.4,1.1-2.8,2.1-4.6,2.7c-0.9,0.3-1.9,0.5-3,0.2c-1.1-0.2-2.1-1-2.6-1.9l1.7-1.1c0.3,0.5,0.8,0.9,1.3,1c0.6,0.1,1.2,0.1,2-0.1
		c1.4-0.4,2.8-1.3,4.1-2.3c1.3-1,2.5-2.1,3.7-3.2c0.9-0.9,1.7-1.8,2.6-2.8c-0.6-0.1-1-0.3-1.3-0.6c-0.3-0.3-0.3-0.9-0.1-1.7
		c0.2-0.8,1-1.8,2.3-3.1c1.3-1.3,2.4-2.2,3.4-2.6c1-0.5,1.6-0.7,1.8-0.8c0.3-0.1,0.5-0.2,0.8-0.2c0.6,0,0.4,0.9-0.6,2.7l-2.9,4.7
		c2.3,0.2,4.2,0.2,5.8,0.2l2.6-0.1c0.9,0,1.5,0.1,1.9,0.3c0.4,0.2,0.5,0.6,0.3,1.2c-0.4,1-1.2,2.2-2.6,3.9c-3,3.5-5.3,7.3-6.8,11.3
		c-0.4,1-0.5,1.8-0.5,2.5c0,1.5,0.5,2.2,1.6,2.2c0.3,0,1-0.3,2-0.8c1-0.5,2.6-1.9,4.9-4c1.2-1,2.2-2.1,3.1-3.1c0,0,0,0,0,0
		c0.9-1,1.7-2,2.5-3c0.2-0.2,0.4-0.3,0.7-0.2C209.3,37.5,209.4,37.6,209.4,37.7z"/>
	<path class="st3" d="M226.1,37.3c-0.3-0.1-0.5-0.1-0.7,0.2c-0.5,0.7-1.1,1.5-1.8,2.2c-1.1,1.3-2.4,2.6-3.9,4
		c-2.3,2.1-4.2,3.5-5.5,4.2c-1.3,0.7-2.3,0.7-3-0.2c-0.4-0.4-0.6-1-0.6-1.7c0-0.7,0-1.3,0.1-1.7c0.2-1.6,1.7-5.2,4.5-10.9
		c0.3-0.5,0.5-0.9,0.8-1.4c0.1-0.2,0.1-0.4,0.2-0.6c0.1-0.2,0.3-0.6,0.5-1c0.2-0.4,0.3-0.9,0.2-1.3c-0.2-0.8-1-1.2-2.3-1.2h-0.5
		c-0.8,0.2-1.6,1.6-2.6,4.5c-0.2,0.4-0.3,0.7-0.2,1c-1.3,2-3.2,4.5-5.5,7.3c0,0,0,0,0,0c-0.1,0.1-0.2,0.3-0.3,0.4
		c-0.2,0.3-0.3,0.5-0.3,0.6c0,0.2,0,0.3,0.1,0.4c0.2,0.5,0.6,0.5,1.1,0c0.4-0.5,0.8-0.9,1.1-1.3c0.1-0.1,0.1-0.2,0.2-0.3
		c0.9-1.1,1.4-1.8,1.6-2.2c-1.6,3.6-2.4,6.2-2.4,8c0,0.5,0.1,0.9,0.2,1.3c0.7,1.9,2,2.9,4,2.9c0.9,0,1.9-0.2,3.2-0.7
		c2.2-0.8,4.9-2.9,8.1-6.4l0,0c1.9-2.1,3.3-3.8,4-5.2c0.1-0.2,0.2-0.3,0.2-0.4C226.5,37.6,226.4,37.5,226.1,37.3z M220.3,17.4
		c-0.2,0-0.7,0.4-1.5,1.1l-1.3,1c-2.2,1.7-3.2,2.6-3.2,2.8c0,1.1,1.1,1.6,3.2,1.6c0.4,0,0.9-0.5,1.5-1.5c0.7-1,1-1.7,1-2.2l0.6-2.4
		C220.6,17.5,220.5,17.4,220.3,17.4z"/>
	<path class="st3" d="M260.6,37.3c-0.3-0.1-0.5-0.1-0.7,0.2c-0.2,0.2-0.3,0.5-0.5,0.7c-1.3,1.8-3.1,3.6-5.1,5.5
		c-2.3,2.1-4.2,3.5-5.5,4.2c-1.3,0.7-2.3,0.7-3.1-0.2c-0.4-0.4-0.6-1-0.6-1.7c0-0.7,0-1.3,0.1-1.7c0.5-3.7,2-7.3,4.5-10.9
		c0.3-0.5,0-0.9-0.8-1.3c-0.9-0.4-1.6-0.5-2.2-0.5c-0.3,0-2.8,2.5-7.5,7.5c-1.3,1.4-3.8,3.6-7.3,6.6c-2.2,1.7-3.8,2.6-4.8,2.6
		c-1.1,0-1.6-0.9-1.6-2.8c0-1,0.7-2.5,2-4.6c1.3-2.1,2.9-4,4.6-5.6c2.1-1.9,4.4-3.4,6.8-4.6c2.4-1.2,4.5-1.9,6.4-1.9
		s3.1,0.5,3.7,1.4c0.2,0.1,0.3,0.1,0.4,0.1c0.1-0.1,0.1-0.2,0.1-0.5c0-0.8-0.5-1.5-1.4-2.2c-1-0.7-2.1-1-3.4-1
		c-1.3,0-2.7,0.2-4.1,0.5c-1.4,0.4-3.3,1.2-5.7,2.6c-2.4,1.4-4.7,3.1-7,5.1c-1.8,1.6-3.2,3.2-4.2,4.8c-0.3,0.4-0.5,0.9-0.7,1.3
		c-0.4,0.7-0.6,1.5-0.7,2.2c0,0.2,0,0.4,0,0.6c0,1,0.3,2,1,2.8c0.7,0.9,1.5,1.6,2.4,2c0.9,0.5,1.8,0.7,2.6,0.7
		c1.8,0,3.7-0.9,5.9-2.6c2.2-1.8,4.1-3.6,5.8-5.5c1.7-1.9,2.6-2.9,2.8-3c-1,2.5-1.4,4.9-1.4,7.2c0,0.8,0.1,1.4,0.2,2
		c0.7,1.9,1.9,2.9,3.9,2.9c2,0,4.2-0.9,6.6-2.6c1.3-0.9,3.1-2.6,5.5-5.2c0.4-0.5,0.8-0.9,1.2-1.3c1.6-1.8,2.4-3,2.4-3.7
		C261,37.6,260.9,37.5,260.6,37.3z"/>
	<path class="st3" d="M262.7,39c11.2-9.3,19.4-18.5,24.6-27.5c0.8-1.6,1.1-2.8,1.1-3.6c0-0.9-0.1-1.5-0.4-2c-0.8-1.3-2.2-2-4.3-2
		c-2.1,0-4.2,1-6.2,2.9c-1.1,1-1.9,1.8-2.4,2.4l-2.3,2.9c-2.7,3.6-5.8,9-9.1,16.1c-1.8,3.8-3.2,7.1-4,9.9c-0.4,1.1-0.7,2.2-0.9,3.1
		c-0.2,1.1-0.4,2.1-0.4,3v0.5c0,3.7,1.9,5.6,5.7,5.6c1.7,0,3.3-0.6,5-1.9c1.7-1.2,3.5-2.9,5.6-5c2-2.1,3.4-3.9,4.2-5.2
		c0.2-0.7,0.1-1-0.4-1c-0.2,0-0.4,0.1-0.5,0.2c-1.3,1.8-3,3.7-5.4,5.9c-2.3,2.1-4.2,3.6-5.7,4.4c-2,1.2-3.4,1.1-4.3-0.3
		c-0.5-0.8-0.8-1.7-0.8-2.7c0-1,0-1.8,0.1-2.3C261.7,41.9,262.1,40.7,262.7,39z M270.4,22c3.8-6.7,7.7-11.7,11.7-14.8
		c1.1-0.8,1.9-1.2,2.6-1.2c0.9,0,1.3,0.5,1.3,1.6c0,0.6-0.3,1.5-0.9,2.6c-2.2,4.2-5.4,8.9-9.7,14.3c-4.3,5.3-8.2,9.2-11.7,11.6
		C265.2,32.1,267.4,27.5,270.4,22z"/>
	<path class="st3" d="M171.9,26.9c-0.3,0-0.5-0.1-0.8-0.1c-0.1,0-0.3,0-0.4,0c-0.1,0-0.2,0-0.3,0c-2.1,0.1-4.3,1.2-6.7,3.2
		c-1.6,1.4-2.9,2.9-4.1,4.8c-0.6,0.9-1.1,1.8-1.5,2.6c0.2-0.1,0.3-0.1,0.5,0c0.3,0.1,0.4,0.2,0.4,0.4c0,0.1-0.1,0.3-0.1,0.4
		c-0.5,0.8-1.1,1.8-2.1,2.9c-0.2,0.9-0.3,1.8-0.3,2.8c0,2.7,0.9,4.6,2.6,5.7c0.9,0.7,2,1,3.4,1c2.4,0,4.6-0.8,6.6-2.5
		c1-0.9,1.9-1.9,3-2.9l1.4-1.9c1.7-2.4,2.9-4.5,3.3-6.2c0,0,0-0.1,0-0.1c0.2-0.8,0.3-1.6,0.3-2.4C177.3,30.7,175.1,27.5,171.9,26.9z
		 M173.5,38.4c0,0,0,0.1-0.1,0.1c-0.2,0.6-0.5,1.2-0.8,1.9l-1.7,2.9c-1.2,1.7-2.5,3.1-3.9,4.2c-1.5,1.1-2.8,1.7-4,1.7
		c-1.2,0-2.1-0.4-2.5-1.3c-0.5-0.9-0.7-1.7-0.7-2.4c0-0.7,0.1-1.3,0.2-1.8c0.5-2.8,1.8-5.6,3.9-8.3c0.4-0.5,0.7-0.9,1.1-1.4
		c2.8-3.2,5-4.8,6.8-4.8c0.1,0,0.1,0,0.2,0h0c0.2,0,0.4,0.1,0.5,0.1c0.1,0,0.2,0,0.3,0c0,0,0.1,0,0.1,0c0,0,0,0,0,0
		c0,0,0.1,0,0.1,0.1c0,0,0.1,0,0.1,0.1c0.6,0.5,1.1,1.4,1.2,3c-0.1,0-0.2,0-0.3,0.1c-0.2,0.1-0.4,0.2-0.6,0.4
		c-0.2,0.2-0.3,0.5-0.4,0.8c-0.1,0.3,0,0.7,0.1,1.1c0,0,0,0.1,0,0.1c0,0,0,0,0,0l0.2,0.3c0,0,0,0,0,0c0.2,0.4,0.4,0.8,0.7,1.2
		C173.9,37.3,173.8,37.9,173.5,38.4z"/>
	<path class="st3" d="M35,11.1"/>
</g>
</svg>
