<!-- Generated by IcoMoon.io -->
<svg version="1.1" xmlns="http://www.w3.org/2000/svg" width="724" height="512" viewBox="0 0 724 512">
<title></title>
<g id="icomoon-ignore">
</g>
<path fill="#2e247a" d="M298.176 329.945h-64.014l-14.169-101.334c-1.012-7.211-1.898-15.055-2.656-23.911-0.759-8.729-2.656-18.344-3.289-28.591-1.518 9.868-4.554 22.266-8.982 37.194-1.012 3.036-1.644 5.44-2.15 6.832l-32.639 109.81h-42.634l-32.639-109.81c-0.379-1.518-1.138-3.795-2.024-6.832-4.555-14.802-7.591-27.2-8.982-36.94-0.632 8.856-2.024 17.585-2.909 26.314s-1.897 17.332-3.162 26.061l-14.169 101.334h-63.761l42.634-234.296 63.508-0.126 35.043 120.943c0.253 0.886 0.632 2.277 1.265 4.174 3.416 10.753 5.566 19.988 6.452 27.706 0.38-4.174 1.265-8.729 2.404-13.79 1.265-5.060 2.783-11.132 4.934-18.344l35.423-120.564h64.014l42.507 234.169z"></path>
<path fill="#2e247a" d="M404.824 329.945h-64.014v-234.296h71.604c28.844 0 49.086 1.265 60.725 3.795s21.507 6.958 29.73 13.156c9.488 7.211 16.826 16.067 21.76 26.82 5.061 10.753 7.464 22.645 7.464 35.802 0 14.043-2.53 26.314-7.464 36.941s-12.271 19.356-21.886 26.188c-7.337 5.060-15.94 8.856-25.808 11.006-9.868 2.277-25.681 3.416-47.567 3.416h-24.67v77.171zM404.824 201.285h13.409c16.952 0 28.718-2.15 35.423-6.326s10.12-11.386 10.12-21.506c0-9.868-3.289-16.826-9.868-21s-18.217-6.199-34.916-6.199h-14.17v55.031z"></path>
<path fill="#2e247a" d="M575.106 329.945v-234.296h148.902v51.237h-85.014v40.737h78.689v50.225h-78.689v92.099h-63.888z"></path>
<path fill="#000" d="M52.241 415.085h-11.006l-2.53-18.597c-0.127-1.265-0.38-2.783-0.506-4.428s-0.253-3.416-0.38-5.313c-0.253 1.771-0.759 4.048-1.645 6.832-0.127 0.632-0.253 1.012-0.38 1.265l-5.819 20.241h-7.843l-5.819-20.241c-0.127-0.253-0.253-0.759-0.38-1.265-0.759-2.783-1.392-5.060-1.645-6.832-0.127 1.644-0.253 3.289-0.38 4.808-0.127 1.644-0.38 3.163-0.506 4.808l-2.53 18.597h-10.88l6.579-43.14h11.639l6.452 22.265c0 0.127 0.127 0.38 0.253 0.759 0.633 2.024 1.012 3.668 1.139 5.060 0.127-0.759 0.253-1.644 0.38-2.53 0.253-0.885 0.506-2.024 0.886-3.416l6.578-22.139h11.639l6.705 43.267z"></path>
<path fill="#000" d="M55.151 375.993c0-1.644 0.506-2.909 1.645-4.048s2.53-1.644 4.048-1.644c1.645 0 3.036 0.506 4.174 1.644s1.644 2.404 1.644 4.048c0 1.644-0.506 3.036-1.644 4.175s-2.53 1.771-4.048 1.771c-1.518 0-2.91-0.632-4.048-1.771-1.265-1.139-1.771-2.53-1.771-4.175zM55.657 415.085v-29.729h10.5v29.73h-10.5z"></path>
<path fill="#000" d="M71.724 415.085v-29.729h9.614v6.072c1.391-2.404 3.036-4.175 4.808-5.313s4.048-1.644 6.579-1.644c1.897 0 3.668 0.253 5.187 0.885s2.656 1.518 3.668 2.656c0.759 1.012 1.391 2.277 1.644 3.668 0.379 1.392 0.506 3.542 0.506 6.452v17.079h-10.5v-15.94c0-2.404-0.379-4.048-1.138-5.187s-2.024-1.644-3.668-1.644c-2.15 0-3.795 0.759-4.808 2.404s-1.518 4.175-1.518 7.844v12.524h-10.374z"></path>
<path fill="#000" d="M108.285 375.993c0-1.644 0.506-2.909 1.644-4.048s2.53-1.644 4.048-1.644c1.644 0 3.036 0.506 4.174 1.644s1.644 2.404 1.644 4.048c0 1.644-0.506 3.036-1.644 4.175s-2.53 1.771-4.048 1.771c-1.518 0-2.909-0.632-4.048-1.771s-1.771-2.53-1.771-4.175zM108.918 415.085v-29.729h10.5v29.73h-10.5z"></path>
<path fill="#000" d="M122.201 412.555l2.15-7.97c1.518 1.392 3.162 2.404 5.060 3.036 1.771 0.759 3.668 1.012 5.566 1.012 1.265 0 2.277-0.253 3.036-0.632 0.632-0.38 1.012-1.012 1.012-1.897 0-1.265-1.392-2.277-4.174-2.909-0.886-0.253-1.644-0.38-2.15-0.506-3.162-0.885-5.44-2.024-6.832-3.416s-2.15-3.289-2.15-5.44c0-2.909 1.138-5.187 3.289-6.958s5.061-2.53 8.855-2.53c1.898 0 3.795 0.253 5.82 0.632s3.922 1.139 6.072 2.024l-2.15 7.211c-1.392-0.885-2.783-1.644-4.174-2.151s-2.91-0.759-4.301-0.759c-1.138 0-2.15 0.127-2.656 0.506-0.632 0.38-0.886 0.885-0.886 1.644 0 1.012 1.392 1.897 4.174 2.656 0.632 0.127 1.138 0.253 1.392 0.38 3.668 1.012 6.199 2.277 7.59 3.668s2.15 3.289 2.15 5.693c0 3.036-1.138 5.567-3.542 7.337-2.277 1.897-5.44 2.783-9.235 2.783-2.656 0-5.060-0.253-7.211-0.885-2.656-0.38-4.808-1.265-6.705-2.53z"></path>
<path fill="#000" d="M153.196 415.085v-22.392h-4.428v-7.464h4.428v-8.856h10.247v8.856h4.428v7.464h-4.428v22.392h-10.247z"></path>
<path fill="#000" d="M201.269 402.308h-22.519c0 2.277 0.632 4.048 1.771 5.313s2.783 1.897 4.934 1.897c1.644 0 2.91-0.253 4.048-0.885s1.898-1.518 2.53-2.656l7.844 3.163c-0.886 2.277-2.656 4.048-4.934 5.313-2.404 1.265-5.314 1.897-8.729 1.897-5.187 0-9.362-1.392-12.398-4.301-3.162-2.909-4.681-6.705-4.681-11.385s1.518-8.476 4.681-11.512c3.162-3.036 7.084-4.555 11.892-4.555 4.934 0 8.729 1.518 11.638 4.681 2.783 3.163 4.301 7.337 4.301 12.777v0.253zM190.896 396.361c-0.253-1.644-0.886-3.036-1.898-4.048-1.138-1.012-2.404-1.518-4.048-1.518s-3.036 0.506-4.048 1.392c-1.012 0.885-1.644 2.277-2.024 4.175h12.018zM193.553 370.933l-9.108 10.373h-4.554l5.314-10.373h8.35z"></path>
<path fill="#000" d="M204.811 415.085v-29.729h9.868v6.958c1.012-2.53 2.404-4.428 4.174-5.693s3.922-1.897 6.452-1.897c0.38 0 0.886 0 1.265 0s0.886 0.127 1.265 0.127l-1.012 9.488c-0.632-0.253-1.265-0.38-1.898-0.506s-1.138-0.127-1.771-0.127c-2.53 0-4.554 0.759-5.946 2.404-1.392 1.518-2.024 3.795-2.024 6.705v12.271h-10.374z"></path>
<path fill="#000" d="M228.975 375.993c0-1.644 0.506-2.909 1.644-4.048s2.53-1.644 4.048-1.644c1.644 0 3.036 0.506 4.174 1.644s1.644 2.404 1.644 4.048c0 1.644-0.506 3.036-1.644 4.175s-2.53 1.771-4.048 1.771c-1.518 0-2.91-0.632-4.048-1.771s-1.771-2.53-1.771-4.175zM229.607 415.085v-29.729h10.5v29.73h-10.5z"></path>
<path fill="#000" d="M277.048 400.284c0 2.151-0.38 4.175-1.265 6.072s-2.024 3.668-3.668 5.187c-1.644 1.518-3.416 2.656-5.44 3.416s-4.048 1.139-6.325 1.139c-2.277 0-4.428-0.38-6.326-1.139-2.024-0.759-3.795-1.897-5.314-3.416s-2.783-3.163-3.542-5.187c-0.759-1.897-1.265-3.921-1.265-6.199 0-2.151 0.38-4.175 1.265-6.199 0.759-1.897 2.024-3.668 3.542-5.187s3.289-2.656 5.314-3.416c2.024-0.759 4.174-1.139 6.452-1.139s4.428 0.38 6.452 1.139c2.024 0.759 3.795 1.897 5.313 3.416 1.644 1.518 2.783 3.289 3.668 5.187 0.759 2.151 1.139 4.175 1.139 6.325zM266.675 400.284c0-2.277-0.506-3.921-1.644-5.187s-2.656-1.897-4.555-1.897c-1.897 0-3.416 0.632-4.554 1.897s-1.644 3.036-1.644 5.187c0 2.277 0.506 3.921 1.644 5.187s2.657 1.897 4.554 1.897c1.897 0 3.416-0.632 4.555-1.897s1.644-3.036 1.644-5.187z"></path>
<path fill="#000" d="M308.803 415.085h-11.006v-43.14h12.271c4.808 0 8.223 0.253 10.12 0.759s3.542 1.265 4.934 2.404c1.644 1.265 2.783 2.909 3.668 4.934s1.265 4.175 1.265 6.579c0 2.53-0.38 4.808-1.265 6.832-0.759 1.897-2.024 3.542-3.668 4.808-1.265 0.885-2.656 1.644-4.301 2.024s-4.301 0.632-7.844 0.632h-4.175v14.169zM308.803 391.301h2.277c2.783 0 4.808-0.38 5.946-1.139s1.644-2.151 1.644-3.921c0-1.771-0.506-3.036-1.644-3.921-1.139-0.759-3.036-1.139-5.82-1.139h-2.404v10.12z"></path>
<path fill="#000" d="M363.202 385.356v15.182c0 3.416-0.253 5.82-0.759 7.464s-1.392 3.036-2.656 4.301c-1.265 1.265-2.909 2.277-4.934 2.909-1.897 0.632-4.301 1.012-6.958 1.012s-4.934-0.38-6.832-1.012c-1.897-0.632-3.668-1.644-4.934-2.909s-2.151-2.656-2.656-4.301c-0.506-1.644-0.759-4.175-0.759-7.464v-15.182h9.994v15.94c0 2.53 0.38 4.301 1.265 5.44 0.759 1.139 2.151 1.644 4.048 1.644s3.163-0.506 4.048-1.644c0.759-1.139 1.265-2.909 1.265-5.44v-15.94h9.868zM356.497 370.933l-9.108 10.373h-4.555l5.313-10.373h8.349z"></path>
<path fill="#000" d="M368.389 369.415h9.994v15.561c0 1.265 0 2.277-0.127 3.163 0 0.885-0.127 1.518-0.253 2.151 1.265-2.151 2.656-3.668 4.175-4.555s3.668-1.392 6.199-1.392c3.921 0 7.211 1.518 9.615 4.428s3.668 6.705 3.668 11.512c0 4.934-1.265 8.729-3.668 11.639-2.53 2.909-5.82 4.301-9.994 4.301-2.024 0-3.921-0.506-5.567-1.518s-3.163-2.53-4.555-4.555v4.808h-9.615v-45.543zM377.75 400.158c0 2.277 0.632 4.175 1.771 5.44 1.265 1.392 2.909 2.024 4.934 2.024 2.151 0 3.795-0.632 5.060-2.024 1.265-1.265 1.771-3.163 1.771-5.44s-0.632-4.175-1.897-5.44c-1.265-1.392-2.909-2.024-5.060-2.024s-3.795 0.632-4.934 2.024c-1.139 1.392-1.644 3.163-1.644 5.44z"></path>
<path fill="#000" d="M405.962 415.085v-45.67h10.5v45.67h-10.5z"></path>
<path fill="#000" d="M421.776 375.993c0-1.644 0.506-2.909 1.644-4.048s2.53-1.644 4.048-1.644c1.644 0 3.036 0.506 4.175 1.644s1.644 2.404 1.644 4.048c0 1.644-0.506 3.036-1.644 4.175s-2.53 1.771-4.048 1.771c-1.518 0-2.909-0.632-4.048-1.771s-1.771-2.53-1.771-4.175zM422.282 415.085v-29.729h10.5v29.73h-10.5z"></path>
<path fill="#000" d="M459.729 395.096c-1.012-0.885-2.024-1.518-2.909-2.024-0.885-0.38-1.897-0.632-2.909-0.632-2.024 0-3.668 0.632-4.934 2.024s-1.897 3.289-1.897 5.567c0 2.277 0.632 4.048 1.897 5.44s3.036 2.024 5.187 2.024c1.012 0 2.024-0.253 3.036-0.632 0.885-0.38 1.771-1.139 2.656-1.897v9.108c-1.265 0.759-2.53 1.265-3.795 1.518-1.265 0.38-2.53 0.506-3.921 0.506-4.555 0-8.223-1.518-11.132-4.428-2.783-2.909-4.301-6.832-4.301-11.639 0-4.681 1.392-8.476 4.301-11.385s6.579-4.428 11.132-4.428c1.518 0 2.909 0.127 4.048 0.38 1.265 0.253 2.404 0.759 3.416 1.392v9.108z"></path>
<path fill="#000" d="M495.151 400.284c0 2.151-0.38 4.175-1.265 6.072s-2.024 3.668-3.668 5.187c-1.644 1.518-3.416 2.656-5.44 3.416s-4.048 1.139-6.325 1.139c-2.277 0-4.428-0.38-6.325-1.139-2.024-0.759-3.795-1.897-5.313-3.416s-2.783-3.163-3.542-5.187c-0.759-1.897-1.265-3.921-1.265-6.199 0-2.151 0.38-4.175 1.265-6.199 0.759-1.897 2.024-3.668 3.542-5.187s3.289-2.656 5.313-3.416c2.024-0.759 4.175-1.139 6.452-1.139s4.428 0.38 6.452 1.139c2.024 0.759 3.795 1.897 5.313 3.416 1.644 1.518 2.783 3.289 3.668 5.187 0.759 2.151 1.139 4.175 1.139 6.325zM484.778 400.284c0-2.277-0.506-3.921-1.644-5.187s-2.656-1.897-4.555-1.897c-1.897 0-3.416 0.632-4.555 1.897s-1.644 3.036-1.644 5.187c0 2.277 0.506 3.921 1.644 5.187s2.656 1.897 4.555 1.897c1.897 0 3.416-0.632 4.555-1.897s1.644-3.036 1.644-5.187z"></path>
<path fill="#000" d="M515.899 415.085v-43.14h26.314v9.488h-14.802v7.464h14.043v9.235h-14.043v16.952h-11.512z"></path>
<path fill="#000" d="M576.244 402.308h-22.519c0 2.277 0.633 4.048 1.771 5.313s2.783 1.897 4.934 1.897c1.644 0 2.909-0.253 4.048-0.885s1.898-1.518 2.53-2.656l7.843 3.163c-0.885 2.277-2.657 4.048-4.934 5.313-2.404 1.265-5.313 1.897-8.729 1.897-5.187 0-9.361-1.392-12.398-4.301-3.163-2.909-4.681-6.705-4.681-11.385s1.518-8.476 4.681-11.512c3.163-3.036 7.085-4.555 11.891-4.555 4.934 0 8.729 1.518 11.639 4.681 2.783 3.163 4.301 7.337 4.301 12.777v0.253zM565.997 396.361c-0.253-1.644-0.885-3.036-1.898-4.048-1.139-1.012-2.404-1.518-4.048-1.518s-3.036 0.506-4.048 1.392c-1.012 0.885-1.644 2.277-2.024 4.175h12.018z"></path>
<path fill="#000" d="M611.793 369.415v45.67h-9.615v-4.808c-1.391 2.024-2.783 3.542-4.554 4.555-1.644 1.012-3.542 1.518-5.567 1.518-4.174 0-7.464-1.392-9.994-4.301-2.404-2.909-3.668-6.832-3.668-11.639 0-4.681 1.265-8.603 3.668-11.512s5.693-4.428 9.615-4.428c2.53 0 4.554 0.506 6.072 1.392s3.036 2.404 4.174 4.555c-0.126-0.759-0.253-1.518-0.253-2.404s-0.126-1.897-0.126-2.909v-15.561h10.247zM602.558 400.158c0-2.277-0.633-4.175-1.898-5.44-1.265-1.392-2.909-2.024-5.061-2.024s-3.795 0.632-4.934 2.024c-1.265 1.392-1.771 3.163-1.771 5.44s0.633 4.175 1.771 5.44c1.265 1.265 2.909 2.024 5.061 2.024s3.795-0.632 5.061-2.024c1.139-1.265 1.771-3.036 1.771-5.44z"></path>
<path fill="#000" d="M647.848 402.308h-22.519c0 2.277 0.633 4.048 1.771 5.313s2.783 1.897 4.934 1.897c1.644 0 2.909-0.253 4.048-0.885s1.898-1.518 2.53-2.656l7.843 3.163c-0.885 2.277-2.657 4.048-4.934 5.313-2.404 1.265-5.313 1.897-8.729 1.897-5.187 0-9.361-1.392-12.398-4.301-3.163-2.909-4.681-6.705-4.681-11.385s1.518-8.476 4.681-11.512c3.163-3.036 7.085-4.555 11.891-4.555 4.934 0 8.729 1.518 11.639 4.681 2.783 3.163 4.301 7.337 4.301 12.777v0.253zM637.601 396.361c-0.253-1.644-0.885-3.036-1.898-4.048-1.139-1.012-2.404-1.518-4.048-1.518s-3.036 0.506-4.048 1.392c-1.012 0.885-1.644 2.277-2.024 4.175h12.018z"></path>
<path fill="#000" d="M651.517 415.085v-29.729h9.867v6.958c1.012-2.53 2.404-4.428 4.174-5.693s3.922-1.897 6.452-1.897c0.38 0 0.885 0 1.265 0s0.885 0.127 1.265 0.127l-1.012 9.488c-0.633-0.253-1.265-0.38-1.898-0.506s-1.139-0.127-1.771-0.127c-2.53 0-4.554 0.759-5.946 2.404-1.391 1.518-2.024 3.795-2.024 6.705v12.271h-10.374z"></path>
<path fill="#000" d="M707.813 385.356v29.73h-9.615v-4.808c-1.391 2.024-2.909 3.542-4.681 4.555s-3.668 1.392-6.072 1.392c-3.922 0-7.085-1.392-9.488-4.301s-3.542-6.832-3.542-11.639c0-4.808 1.265-8.729 3.668-11.512 2.53-2.909 5.819-4.301 9.994-4.301 2.277 0 4.174 0.506 5.819 1.392 1.644 1.012 3.036 2.404 4.174 4.428v-4.934h9.741zM698.578 400.158c0-2.277-0.633-4.175-1.898-5.567s-2.909-2.024-5.061-2.024c-2.15 0-3.795 0.632-5.061 2.024s-1.898 3.163-1.898 5.567c0 2.277 0.633 4.175 1.898 5.44 1.265 1.392 2.909 2.024 5.061 2.024s3.795-0.632 5.061-2.024c1.265-1.265 1.898-3.163 1.898-5.44z"></path>
<path fill="#000" d="M713.507 415.085v-45.67h10.5v45.67h-10.5z"></path>
</svg>
