<?xml version="1.0" encoding="utf-8"?>
<!-- Generator: Adobe Illustrator 22.0.1, SVG Export Plug-In . SVG Version: 6.00 Build 0)  -->
<svg version="1.1" id="Layer_1" xmlns="http://www.w3.org/2000/svg" xmlns:xlink="http://www.w3.org/1999/xlink" x="0px" y="0px"
	 viewBox="0 0 176.2 38.1" style="enable-background:new 0 0 176.2 38.1;" xml:space="preserve">
<style type="text/css">
	.st0{fill:#9D9D9C;}
	.st1{fill:#6C6B6A;}
	.st2{fill:#8E1813;}
</style>
<g id="memoriallogo1">
	<path class="st0" d="M4,32.3c-0.2-0.3-0.6-0.8-0.6-0.8s0.1,0.6,0.1,0.9V38H2.7v-8.2h0.1l4.9,5.7c0.2,0.3,0.6,0.8,0.6,0.8
		s-0.1-0.6-0.1-0.9v-5.5H9v8.2H8.8L4,32.3z"/>
	<path class="st0" d="M11.7,35.5c0-1.4,1.1-2.6,2.6-2.6c1.5,0,2.6,1.1,2.6,2.6c0,1.4-1.1,2.6-2.6,2.6C12.9,38.1,11.7,36.9,11.7,35.5
		z M16.1,35.5c0-1.1-0.7-1.9-1.8-1.9c-1.1,0-1.8,0.8-1.8,1.9c0,1.1,0.7,1.9,1.8,1.9C15.4,37.4,16.1,36.6,16.1,35.5z"/>
	<path class="st0" d="M19.1,36.9l0.6-0.4c0.3,0.5,0.7,0.8,1.4,0.8c0.7,0,1.1-0.3,1.1-0.7c0-0.5-0.4-0.7-1.3-0.9
		c-0.8-0.2-1.5-0.5-1.5-1.5c0-0.9,0.7-1.3,1.6-1.3c0.8,0,1.3,0.3,1.6,0.8l-0.6,0.4c-0.3-0.3-0.6-0.6-1.1-0.6c-0.5,0-0.9,0.3-0.9,0.6
		c0,0.5,0.3,0.6,1.2,0.8c0.8,0.2,1.6,0.6,1.6,1.5c0,0.8-0.6,1.5-1.8,1.5C20.1,38.1,19.4,37.5,19.1,36.9z"/>
	<path class="st0" d="M25.2,36.9l0.6-0.4c0.3,0.5,0.7,0.8,1.4,0.8c0.7,0,1.1-0.3,1.1-0.7c0-0.5-0.4-0.7-1.3-0.9
		c-0.8-0.2-1.5-0.5-1.5-1.5c0-0.9,0.7-1.3,1.6-1.3c0.8,0,1.3,0.3,1.6,0.8l-0.6,0.4c-0.3-0.3-0.6-0.6-1.1-0.6c-0.5,0-0.9,0.3-0.9,0.6
		c0,0.5,0.3,0.6,1.2,0.8c0.8,0.2,1.6,0.6,1.6,1.5c0,0.8-0.6,1.5-1.8,1.5C26.2,38.1,25.5,37.5,25.2,36.9z"/>
	<path class="st0" d="M34.8,35c0-1-0.4-1.3-1.2-1.3c-0.7,0-1.1,0.3-1.4,0.7l-0.5-0.5c0.4-0.6,1.1-1,2-1c1.1,0,1.9,0.6,1.9,2v3h-0.8
		l0-0.7c-0.3,0.5-0.8,0.8-1.6,0.8c-1.1,0-1.8-0.5-1.8-1.5c0-1,0.8-1.5,1.9-1.5h1.5V35z M33.3,35.7c-0.6,0-1.1,0.2-1.1,0.8
		c0,0.6,0.4,0.9,1.2,0.9c0.8,0,1.4-0.4,1.4-1.1v-0.6H33.3z"/>
	<path class="st0" d="M42.2,29.3H43V34c0.3-0.7,1-1.1,1.8-1.1c1.1,0,1.9,0.8,1.9,2v3h-0.8v-2.9c0-0.9-0.4-1.4-1.2-1.4
		c-0.9,0-1.5,0.6-1.5,1.6V38h-0.8V29.3z"/>
	<path class="st0" d="M49.4,31c0-0.3,0.3-0.6,0.6-0.6s0.6,0.3,0.6,0.6c0,0.3-0.3,0.6-0.6,0.6S49.4,31.4,49.4,31z M49.5,33h0.8V38
		h-0.8V33z"/>
	<path class="st0" d="M52.9,36.9l0.6-0.4c0.3,0.5,0.7,0.8,1.4,0.8c0.7,0,1.1-0.3,1.1-0.7c0-0.5-0.4-0.7-1.3-0.9
		c-0.8-0.2-1.5-0.5-1.5-1.5c0-0.9,0.7-1.3,1.6-1.3c0.8,0,1.3,0.3,1.6,0.8L56,34.2c-0.3-0.3-0.6-0.6-1.1-0.6c-0.5,0-0.9,0.3-0.9,0.6
		c0,0.5,0.3,0.6,1.2,0.8c0.8,0.2,1.6,0.6,1.6,1.5c0,0.8-0.6,1.5-1.8,1.5C53.9,38.1,53.2,37.5,52.9,36.9z"/>
	<path class="st0" d="M59.6,36.5v-2.7h-0.8V33h0.8v-2.6h0.8V33h1.4v0.7h-1.4v2.8c0,0.7,0.2,0.9,0.6,0.9c0.3,0,0.5-0.1,0.7-0.3
		l0.5,0.5c-0.2,0.2-0.6,0.5-1.2,0.5C60.2,38.1,59.6,37.7,59.6,36.5z"/>
	<path class="st0" d="M64.2,35.5c0-1.4,1.1-2.6,2.6-2.6c1.5,0,2.6,1.1,2.6,2.6c0,1.4-1.1,2.6-2.6,2.6C65.3,38.1,64.2,36.9,64.2,35.5
		z M68.6,35.5c0-1.1-0.7-1.9-1.8-1.9c-1.1,0-1.8,0.8-1.8,1.9c0,1.1,0.7,1.9,1.8,1.9C67.9,37.4,68.6,36.6,68.6,35.5z M67.3,29.7h1
		L67.1,32h-0.7L67.3,29.7z"/>
	<path class="st0" d="M72.1,33h0.8l0,1c0.3-0.8,0.9-1.1,1.4-1.1c0.4,0,0.6,0.1,0.9,0.2l-0.3,0.7c-0.2-0.1-0.4-0.2-0.7-0.2
		c-0.7,0-1.3,0.5-1.3,1.7V38h-0.8V33z"/>
	<path class="st0" d="M77.4,31c0-0.3,0.3-0.6,0.6-0.6s0.6,0.3,0.6,0.6c0,0.3-0.3,0.6-0.6,0.6S77.4,31.4,77.4,31z M77.6,33h0.8V38
		h-0.8V33z"/>
	<path class="st0" d="M84.5,35c0-1-0.4-1.3-1.2-1.3c-0.7,0-1.1,0.3-1.4,0.7l-0.5-0.5c0.4-0.6,1.1-1,2-1c1.1,0,1.9,0.6,1.9,2v3h-0.8
		l0-0.7c-0.3,0.5-0.8,0.8-1.6,0.8c-1.1,0-1.8-0.5-1.8-1.5c0-1,0.8-1.5,1.9-1.5h1.5V35z M83,35.7c-0.6,0-1.1,0.2-1.1,0.8
		c0,0.6,0.4,0.9,1.2,0.9c0.8,0,1.4-0.4,1.4-1.1v-0.6H83z"/>
	<path class="st0" d="M94.2,37.4c0.7,0,1.2-0.3,1.6-0.7l0.5,0.5c-0.5,0.5-1.1,0.9-2.1,0.9c-1.6,0-2.7-1.1-2.7-2.6
		c0-1.4,1.1-2.6,2.6-2.6c1.6,0,2.5,1.2,2.5,2.9h-4.2C92.4,36.7,93.1,37.4,94.2,37.4z M95.7,35.1c-0.1-0.8-0.6-1.5-1.6-1.5
		c-0.9,0-1.6,0.6-1.7,1.5H95.7z"/>
	<path class="st0" d="M99.2,33h0.8l0,0.9c0.3-0.7,0.9-1,1.6-1c0.8,0,1.3,0.4,1.5,1c0.4-0.7,1-1,1.7-1c1.1,0,1.8,0.7,1.8,1.9V38h-0.8
		v-3.1c0-0.8-0.3-1.2-1.1-1.2c-0.8,0-1.3,0.5-1.3,1.5V38h-0.8v-3.1c0-0.8-0.3-1.2-1.1-1.2c-0.8,0-1.3,0.5-1.3,1.5V38h-0.8V33z"/>
	<path class="st0" d="M113,33h0.8l0,0.9c0.3-0.7,0.9-1,1.6-1c0.8,0,1.3,0.4,1.5,1c0.4-0.7,1-1,1.7-1c1.1,0,1.8,0.7,1.8,1.9V38h-0.8
		v-3.1c0-0.8-0.3-1.2-1.1-1.2c-0.8,0-1.3,0.5-1.3,1.5V38h-0.8v-3.1c0-0.8-0.3-1.2-1.1-1.2c-0.8,0-1.3,0.5-1.3,1.5V38H113V33z"/>
	<path class="st0" d="M122.9,35.5c0-1.4,1.1-2.6,2.6-2.6c1.5,0,2.6,1.1,2.6,2.6c0,1.4-1.1,2.6-2.6,2.6
		C124.1,38.1,122.9,36.9,122.9,35.5z M127.3,35.5c0-1.1-0.7-1.9-1.8-1.9c-1.1,0-1.8,0.8-1.8,1.9c0,1.1,0.7,1.9,1.8,1.9
		C126.6,37.4,127.3,36.6,127.3,35.5z"/>
	<path class="st0" d="M130.1,33h0.9l1.3,2.9c0.2,0.3,0.3,0.8,0.3,0.8s0.1-0.5,0.3-0.8l1.3-2.9h0.9l-2.4,5h-0.2L130.1,33z"/>
	<path class="st0" d="M137.2,31c0-0.3,0.3-0.6,0.6-0.6s0.6,0.3,0.6,0.6c0,0.3-0.3,0.6-0.6,0.6S137.2,31.4,137.2,31z M137.4,33h0.8
		V38h-0.8V33z"/>
	<path class="st0" d="M141.2,33h0.8l0,0.9c0.3-0.7,0.9-1,1.6-1c0.8,0,1.3,0.4,1.5,1c0.4-0.7,1-1,1.7-1c1.1,0,1.8,0.7,1.8,1.9V38
		h-0.8v-3.1c0-0.8-0.3-1.2-1.1-1.2c-0.8,0-1.3,0.5-1.3,1.5V38h-0.8v-3.1c0-0.8-0.3-1.2-1.1-1.2c-0.8,0-1.3,0.5-1.3,1.5V38h-0.8V33z"
		/>
	<path class="st0" d="M153.8,37.4c0.7,0,1.2-0.3,1.6-0.7l0.5,0.5c-0.5,0.5-1.1,0.9-2.1,0.9c-1.6,0-2.7-1.1-2.7-2.6
		c0-1.4,1.1-2.6,2.6-2.6c1.6,0,2.5,1.2,2.5,2.9H152C152.1,36.7,152.7,37.4,153.8,37.4z M155.4,35.1c-0.1-0.8-0.6-1.5-1.6-1.5
		c-0.9,0-1.6,0.6-1.7,1.5H155.4z"/>
	<path class="st0" d="M158.8,33h0.8l0,1c0.3-0.7,1-1.1,1.8-1.1c1.1,0,1.9,0.8,1.9,2v3h-0.8v-2.9c0-0.9-0.4-1.4-1.2-1.4
		c-0.9,0-1.5,0.6-1.5,1.6V38h-0.8V33z"/>
	<path class="st0" d="M166.4,36.5v-2.7h-0.8V33h0.8v-2.6h0.8V33h1.4v0.7h-1.4v2.8c0,0.7,0.2,0.9,0.6,0.9c0.3,0,0.5-0.1,0.7-0.3
		l0.5,0.5c-0.2,0.2-0.6,0.5-1.2,0.5C167,38.1,166.4,37.7,166.4,36.5z"/>
	<path class="st0" d="M171,35.5c0-1.4,1.1-2.6,2.6-2.6c1.5,0,2.6,1.1,2.6,2.6c0,1.4-1.1,2.6-2.6,2.6C172.1,38.1,171,36.9,171,35.5z
		 M175.4,35.5c0-1.1-0.7-1.9-1.8-1.9c-1.1,0-1.8,0.8-1.8,1.9c0,1.1,0.7,1.9,1.8,1.9C174.7,37.4,175.4,36.6,175.4,35.5z"/>
</g>
<rect x="139.1" y="11.5" class="st0" width="1" height="13.8"/>
<g id="memoriallogo2">
	<path class="st1" d="M146.7,12.3h0.2l5.2,5.7l5.1-5.7h0.2V23h-2.1v-4c0-0.7,0.1-1.9,0.1-1.9s-0.6,0.9-1.1,1.5l-2.1,2.4h-0.2
		l-2.1-2.4c-0.5-0.6-1.1-1.5-1.1-1.5s0.1,1.1,0.1,1.9v4h-2.1V12.3z"/>
	<path class="st1" d="M159.6,12.4h2.9c3,0,4.7,1.5,4.7,4.1s-1.8,4.1-4.7,4.1h-0.7V23h-2.2V12.4z M162.5,18.7c1.8,0,2.6-0.7,2.6-2.2
		c0-1.5-0.8-2.2-2.6-2.2h-0.7v4.4H162.5z"/>
	<path class="st1" d="M169,12.4h6.8v1.9h-4.6v3.5h4.2v1.9h-4.2V23H169V12.4z"/>
</g>
<g>
	<g>
		<path class="st2" d="M42.6,17.5c0,0.1,0,0.1-0.1,0.2c-0.4,0.7-1.2,1.6-2.1,2.6c-1.6,1.7-2.9,2.7-3.8,3c-0.5,0.2-0.9,0.2-1.4,0.2
			c-1.6,0-2.3-1.1-2.3-3.4c0-1.2,0.1-2.3,0.4-3.4c0.3-1.1,0.5-1.9,0.7-2.5c0.2-0.6,0.4-1.3,0.7-2.1c0.3-0.8,0.5-1.4,0.7-1.8
			c0.6-1.5,1-2.5,1.1-2.9c0.1-0.4,0.2-0.7,0.2-1c0-0.3-0.1-0.5-0.2-0.6s-0.3-0.2-0.6-0.2c-0.2,0-0.6,0.2-1.1,0.6
			c-1.8,1.6-3.9,4-6.2,7.4s-4,6.4-4.9,8.3c-0.2,0.4-0.4,0.6-0.6,0.6c-0.2,0-0.4-0.2-0.6-0.5c-0.2-0.3-0.3-0.6-0.3-0.7
			c0-0.2,0-0.3,0-0.3c0.6-1.6,1.2-3.7,1.5-5.4c0.3-1.8,0.4-3.2,0.4-4.4c0-4-0.9-6-2.6-6c-1.6,0-4.5,1.9-8.8,5.8l-1.9,1.7
			c-1.3,1.2-2.6,2.6-4.2,4.3c-1.5,1.7-2.6,3-3.2,3.8c-0.3,0.4-0.5,0.7-0.7,1v0l-0.1,0.3c-0.2,0.2-0.3,0.5-0.5,0.8c0,0,0,0,0,0
			c-0.1,0.2-0.2,0.3-0.3,0.3c-0.2,0-0.3-0.2-0.6-0.4C1.1,22.7,1,22.6,1,22.4v0c0.1-0.5,0.3-1.2,0.6-1.9c0.4-1,1.3-3.1,2.7-6.3
			c1.8-3.9,2.9-7.1,3.4-9.7c0.3-2,0.1-3.1-0.6-3.2C6.5,1.2,5.7,1.6,4.6,2.4C2.9,3.9,1.5,5.4,0.4,6.9C0.3,7.1,0.2,7.1,0.1,7
			C0,6.8,0,6.7,0,6.6c0-0.1,0-0.1,0.1-0.2c0.6-0.9,1.4-1.9,2.5-3c1.8-1.9,3.1-3,4.1-3.3C7.1,0,7.5,0,7.9,0c1.4,0.3,1.8,1.9,1.3,4.8
			C9,6.3,8.6,7.8,8.1,9.1c-0.5,1.4-0.9,2.4-1.2,3.2c-0.3,0.7-0.6,1.6-1.1,2.6c-0.4,1-0.8,1.8-1,2.3c-0.1,0.2-0.2,0.5-0.3,0.7
			c0.6-0.7,1.2-1.3,1.8-2.1c2-2.2,3.8-4,5.2-5.3l2.2-2.1c3.2-2.7,5.5-4.1,6.9-4.2h0.5c1.9,0,3.2,0.6,3.9,1.8c0.6,1,0.9,2.3,0.9,3.6
			c0,2.1-0.6,5.1-1.9,8.9c-0.2,0.7-0.4,1.5-0.4,1.5c0,0,0.1-0.1,0.2-0.2c0.1-0.2,0.4-0.8,0.6-1.1c0.2-0.3,0.7-1.1,1.4-2.3
			c2.7-4.6,5.5-8.4,8.3-11.4c0.9-1,1.8-1.5,2.8-1.5c0.5,0,1,0.2,1.2,0.6c0.3,0.4,0.4,0.8,0.4,1.2c0,0.4-0.1,1.1-0.3,1.9
			c-0.2,0.8-0.8,2.5-1.8,5c-1.2,3.1-1.9,5.7-1.9,7.7c0,1.5,0.4,2.3,1.3,2.3c0.6,0,1.4-0.4,2.4-1.2c1.6-1.3,2.8-2.6,3.8-3.9
			c0.1-0.2,0.2-0.2,0.3-0.1C42.5,17.3,42.6,17.4,42.6,17.5z"/>
	</g>
	<path class="st2" d="M53.5,17.5c-0.1-0.1-0.2-0.1-0.3,0c0,0-0.1,0.1-0.1,0.1c-0.1,0.1-0.1,0.2-0.2,0.3c-0.1,0.1-0.2,0.2-0.2,0.3
		c-1.4,1.9-3.3,3.3-5.7,4.3c-0.9,0.4-1.7,0.6-2.4,0.6c-0.6,0-1.1-0.2-1.4-0.5c-0.3-0.3-0.5-0.7-0.5-1c0-0.4,0.1-0.7,0.2-1.1
		c0.4-1.2,1.2-2.5,2.4-3.8c1.2-1.3,2.4-2.2,3.5-2.7c0.5-0.3,0.9-0.4,1.2-0.4c0.4,0,0.6,0.2,0.6,0.6c0,0.4-0.2,0.8-0.5,1.2
		c-0.7,0.9-1.9,1.8-3.5,2.6c-0.8,0.5-1.5,0.7-2.1,0.8c0,0-0.1,0-0.2,0c-0.1,0-0.1,0.1-0.1,0.2c0,0.2,0.2,0.3,0.5,0.3
		c0.9-0.1,2-0.4,3.4-1.1c1.3-0.6,2.3-1.4,2.9-2.3c0.4-0.4,0.5-0.9,0.5-1.6c0-1.2-0.6-1.8-1.9-1.8c-1.1,0-2.7,0.7-4.6,2.1
		c-1.6,1.1-2.7,2.3-3.4,3.4c-0.2,0.3-0.3,0.5-0.4,0.8c-0.1,0.3-0.2,0.6-0.3,0.9c-0.1,0.4-0.1,0.7-0.1,1.1c0,0.6,0.1,1,0.4,1.4
		c0.7,1,1.9,1.5,3.6,1.5c2,0,4-0.9,6.1-2.7c0.8-0.7,1.5-1.4,2.1-2.2c0.2-0.3,0.4-0.6,0.6-0.9c0.1-0.1,0.1-0.2,0.1-0.2
		C53.7,17.6,53.6,17.5,53.5,17.5z"/>
	<path class="st2" d="M74.1,17.4c-0.1,0-0.2,0-0.3,0v0c0,0-0.1,0-0.1,0.1c-0.7,0.9-1.5,1.9-2.6,2.9c-1.1,1-1.9,1.6-2.6,2
		c-0.6,0.3-1.1,0.3-1.4-0.1c-0.2-0.2-0.3-0.5-0.3-0.8c0-0.3,0-0.7,0.1-1.1c0-0.4,1-2.6,1.4-3.6c0.4-1.1,0.8-1.9,1.2-2.4
		c0.4-0.5,0.5-0.9,0.5-1c0-0.2-0.2-0.4-0.5-0.4c-0.3,0-1.1,0-2,0.6c-1.6,1-4.6,5.3-6.6,7.1c0.1-0.2,1.7-3.1,2.1-3.8
		c0.3-0.7,0.6-1.3,0.9-1.9c0.3-0.5,0.4-1,0.4-1.4c0-0.4-0.1-0.7-0.3-0.8c-0.2-0.1-0.4-0.2-0.6-0.2c-1,0-2.8,1.4-5.4,4.1
		c-1.3,1.4-2.4,2.6-3.2,3.6c1.2-3.2,2-5.1,2.2-5.7c0.3-0.6,0.4-0.9,0.4-1.1c0-0.2-0.2-0.4-0.5-0.5c-0.3-0.1-0.6-0.1-0.9,0
		c-0.4,0.1-0.7,0.6-0.8,1.4c-0.4,0.8-1.1,1.8-1.9,2.9c-0.1,0.1-0.2,0.2-0.3,0.4c-0.1,0.1-0.1,0.1-0.2,0.2c0,0-0.1,0.1-0.1,0.1
		c-0.1,0.2-0.2,0.4-0.2,0.6c0,0.3,0.1,0.3,0.3,0.1c0,0,0.1-0.1,0.1-0.1c0.4-0.4,0.8-1,1.3-1.7c-1.4,4-2.1,6-2.2,6.1
		C52,23.4,52,23.5,52,23.6c0,0.1,0.1,0.1,0.3,0.1c0.2,0,0.7-0.2,1.6-0.6c0.2-0.1,1-1.1,2.4-3c-0.3,0.3,0.6-1.4,3.3-3.9
		c1.1-1,1.9-1.4,2.3-1.4c0.2,0,0.3,0.1,0.3,0.3c0,0.2-1.8,3.5-2.6,5c-0.8,1.6-1.3,2.6-1.3,3c0,0.4,0.2,0.6,0.8,0.5
		c0.5-0.1,1.7-0.9,1.9-1.4c0,0,3.3-4.1,4.3-5.3c0.7-0.8,1.4-2.1,2.3-2.4c-0.3,0.4-0.6,1.2-1,2.3c-0.4,1.1-1.4,3.6-1.4,4.7
		c0,0.4,0.1,0.7,0.2,1.1c0.1,0.4,0.4,0.7,0.9,1c0.5,0.3,1.3,0.2,2.4-0.1c1-0.4,2.3-1.4,3.8-3c0.4-0.4,0.7-0.7,0.9-1.1
		c0.4-0.5,0.7-1,1-1.4c0-0.1,0.1-0.1,0.1-0.2C74.3,17.6,74.3,17.5,74.1,17.4z"/>
	<path class="st2" d="M97.8,17.6c0,0.1,0,0.1-0.1,0.2c-0.2,0.3-0.4,0.7-0.7,1.1c0,0-0.1,0.1-0.1,0.1c-0.3,0.4-0.7,0.8-1.1,1.2
		c-0.9,1-1.8,1.8-2.7,2.4c-0.8,0.7-1.8,1-2.8,1c-1.2,0-1.8-0.7-1.8-2.2c0-1.4,1-3.2,3.1-5.3c0.2-0.2,0.3-0.3,0.4-0.4l0.2-0.4
		c0.3-0.4,0.5-0.7,0.5-0.8l-0.1-0.3c-0.1-0.3-0.5-0.5-1.2-0.6c-0.7-0.1-1.2-0.2-1.7-0.2h-0.1c-0.5,0.6-1.1,1.3-1.6,1.9
		c-0.6,0.6-1.1,1.1-1.8,1.6c-0.6,0.5-1.3,1-2.2,1.2c-0.4,0.1-0.9,0.2-1.4,0.1c-0.5-0.1-1-0.5-1.2-0.9l0.8-0.5
		c0.2,0.3,0.4,0.4,0.6,0.5c0.3,0.1,0.6,0,0.9-0.1c0.7-0.2,1.3-0.6,1.9-1.1c0.6-0.5,1.2-1,1.7-1.5c0.4-0.4,0.8-0.8,1.2-1.3
		c-0.3,0-0.5-0.1-0.6-0.3c-0.1-0.2-0.2-0.4,0-0.8c0.1-0.4,0.5-0.9,1.1-1.5c0.6-0.6,1.1-1,1.6-1.2c0.4-0.2,0.7-0.3,0.8-0.4
		c0.1,0,0.2-0.1,0.4-0.1c0.3,0,0.2,0.4-0.3,1.3l-1.4,2.2c1.1,0.1,2,0.1,2.7,0.1l1.2,0c0.4,0,0.7,0.1,0.9,0.2
		c0.2,0.1,0.2,0.3,0.1,0.5c-0.2,0.5-0.6,1.1-1.2,1.8c-1.4,1.6-2.5,3.4-3.2,5.3c-0.2,0.4-0.2,0.8-0.2,1.2c0,0.7,0.2,1,0.7,1
		c0.2,0,0.5-0.1,0.9-0.4c0.5-0.3,1.2-0.9,2.3-1.9c0.5-0.5,1-1,1.5-1.4c0,0,0,0,0,0c0.4-0.5,0.8-1,1.1-1.4c0.1-0.1,0.2-0.1,0.3-0.1
		C97.8,17.5,97.8,17.6,97.8,17.6z"/>
	<path class="st2" d="M105.6,17.4c-0.1-0.1-0.2,0-0.3,0.1c-0.2,0.3-0.5,0.7-0.8,1c-0.5,0.6-1.1,1.2-1.8,1.9c-1.1,1-1.9,1.6-2.6,2
		c-0.6,0.3-1.1,0.3-1.4-0.1c-0.2-0.2-0.3-0.5-0.3-0.8c0-0.3,0-0.6,0-0.8c0.1-0.7,0.8-2.4,2.1-5.1c0.1-0.2,0.2-0.4,0.4-0.7
		c0-0.1,0.1-0.2,0.1-0.3c0-0.1,0.1-0.3,0.2-0.5c0.1-0.2,0.1-0.4,0.1-0.6c-0.1-0.4-0.5-0.6-1.1-0.6H100c-0.4,0.1-0.8,0.8-1.2,2.1
		c-0.1,0.2-0.1,0.3-0.1,0.5c-0.6,0.9-1.5,2.1-2.6,3.4c0,0,0,0,0,0C96.1,19,96,19.1,96,19.2c-0.1,0.1-0.1,0.2-0.1,0.3
		c0,0.1,0,0.1,0,0.2c0.1,0.2,0.3,0.2,0.5,0c0.2-0.2,0.4-0.4,0.5-0.6c0,0,0.1-0.1,0.1-0.1c0.4-0.5,0.7-0.8,0.7-1
		c-0.8,1.7-1.1,2.9-1.1,3.7c0,0.2,0,0.4,0.1,0.6c0.3,0.9,0.9,1.3,1.9,1.3c0.4,0,0.9-0.1,1.5-0.3c1-0.4,2.3-1.4,3.8-3l0,0
		c0.9-1,1.5-1.8,1.9-2.4c0-0.1,0.1-0.1,0.1-0.2C105.8,17.6,105.7,17.5,105.6,17.4z M102.9,8.1c-0.1,0-0.3,0.2-0.7,0.5l-0.6,0.5
		c-1,0.8-1.5,1.2-1.5,1.3c0,0.5,0.5,0.7,1.5,0.7c0.2,0,0.4-0.2,0.7-0.7c0.3-0.5,0.5-0.8,0.5-1l0.3-1.1C103,8.2,103,8.1,102.9,8.1z"
		/>
	<path class="st2" d="M121.8,17.4c-0.1-0.1-0.2,0-0.3,0.1c-0.1,0.1-0.2,0.2-0.2,0.3c-0.6,0.8-1.4,1.7-2.4,2.6c-1.1,1-1.9,1.6-2.6,2
		c-0.6,0.3-1.1,0.3-1.4-0.1c-0.2-0.2-0.3-0.5-0.3-0.8c0-0.3,0-0.6,0-0.8c0.2-1.7,0.9-3.4,2.1-5.1c0.1-0.2,0-0.4-0.4-0.6
		c-0.4-0.2-0.7-0.2-1-0.2c-0.2,0-1.3,1.2-3.5,3.5c-0.6,0.7-1.8,1.7-3.4,3.1c-1,0.8-1.8,1.2-2.3,1.2c-0.5,0-0.7-0.4-0.7-1.3
		c0-0.4,0.3-1.2,0.9-2.1c0.6-1,1.3-1.9,2.2-2.6c1-0.9,2-1.6,3.2-2.2c1.1-0.6,2.1-0.9,3-0.9c0.9,0,1.5,0.2,1.7,0.7
		c0.1,0,0.2,0.1,0.2,0c0,0,0-0.1,0-0.2c0-0.4-0.2-0.7-0.7-1c-0.4-0.3-1-0.5-1.6-0.5c-0.6,0-1.3,0.1-1.9,0.2
		c-0.7,0.2-1.6,0.6-2.7,1.2c-1.1,0.7-2.2,1.5-3.3,2.4c-0.8,0.7-1.5,1.5-1.9,2.3c-0.1,0.2-0.2,0.4-0.3,0.6c-0.2,0.3-0.3,0.7-0.3,1
		c0,0.1,0,0.2,0,0.3c0,0.5,0.2,0.9,0.5,1.3c0.3,0.4,0.7,0.7,1.1,1c0.4,0.2,0.8,0.3,1.2,0.3c0.8,0,1.7-0.4,2.8-1.2
		c1-0.8,1.9-1.7,2.7-2.6c0.8-0.9,1.2-1.4,1.3-1.4c-0.4,1.2-0.7,2.3-0.7,3.4c0,0.4,0,0.7,0.1,1c0.3,0.9,0.9,1.3,1.8,1.3
		c0.9,0,2-0.4,3.1-1.2c0.6-0.4,1.4-1.2,2.6-2.4c0.2-0.2,0.4-0.4,0.5-0.6c0.8-0.9,1.1-1.4,1.1-1.7C121.9,17.6,121.9,17.5,121.8,17.4z
		"/>
	<path class="st2" d="M122.7,18.2c5.2-4.4,9-8.6,11.5-12.8c0.4-0.7,0.5-1.3,0.5-1.7c0-0.4-0.1-0.7-0.2-0.9c-0.4-0.6-1-0.9-2-0.9
		c-1,0-2,0.4-2.9,1.3c-0.5,0.4-0.9,0.8-1.1,1.1l-1.1,1.4c-1.3,1.7-2.7,4.2-4.3,7.5c-0.8,1.8-1.5,3.3-1.9,4.6c-0.2,0.5-0.3,1-0.4,1.5
		c-0.1,0.5-0.2,1-0.2,1.4v0.2c0,1.7,0.9,2.6,2.7,2.6c0.8,0,1.6-0.3,2.3-0.9c0.8-0.6,1.6-1.4,2.6-2.3c1-1,1.6-1.8,2-2.4
		c0.1-0.3,0-0.5-0.2-0.5c-0.1,0-0.2,0-0.2,0.1c-0.6,0.8-1.4,1.7-2.5,2.7c-1.1,1-2,1.7-2.7,2.1c-0.9,0.5-1.6,0.5-2-0.1
		c-0.2-0.4-0.4-0.8-0.4-1.3c0-0.5,0-0.8,0-1.1C122.3,19.6,122.4,19,122.7,18.2z M126.3,10.3c1.8-3.1,3.6-5.5,5.5-6.9
		c0.5-0.4,0.9-0.6,1.2-0.6c0.4,0,0.6,0.2,0.6,0.7c0,0.3-0.1,0.7-0.4,1.2c-1,2-2.5,4.2-4.5,6.7c-2,2.5-3.8,4.3-5.5,5.4
		C123.9,15,124.9,12.8,126.3,10.3z"/>
	<path class="st2" d="M80.3,12.5c-0.1,0-0.3,0-0.4-0.1c-0.1,0-0.1,0-0.2,0c-0.1,0-0.1,0-0.2,0c-1,0-2,0.5-3.1,1.5
		c-0.7,0.6-1.4,1.4-1.9,2.2c-0.3,0.4-0.5,0.8-0.7,1.2c0.1-0.1,0.2-0.1,0.3,0c0.1,0.1,0.2,0.1,0.2,0.2c0,0.1,0,0.1-0.1,0.2
		c-0.2,0.4-0.5,0.8-1,1.4c-0.1,0.4-0.1,0.9-0.1,1.3c0,1.3,0.4,2.2,1.2,2.6c0.4,0.3,1,0.5,1.6,0.5c1.1,0,2.1-0.4,3.1-1.2
		c0.5-0.4,0.9-0.9,1.4-1.4l0.7-0.9c0.8-1.1,1.3-2.1,1.5-2.9c0,0,0,0,0-0.1c0.1-0.4,0.1-0.7,0.1-1.1C82.8,14.4,81.8,12.9,80.3,12.5z
		 M81.1,18C81.1,18,81.1,18,81.1,18c-0.1,0.3-0.2,0.6-0.4,0.9l-0.8,1.3c-0.5,0.8-1.2,1.5-1.8,2c-0.7,0.5-1.3,0.8-1.9,0.8
		c-0.6,0-1-0.2-1.2-0.6c-0.2-0.4-0.3-0.8-0.3-1.1c0-0.3,0-0.6,0.1-0.9c0.2-1.3,0.8-2.6,1.8-3.9c0.2-0.2,0.3-0.4,0.5-0.7
		c1.3-1.5,2.4-2.3,3.2-2.3c0,0,0.1,0,0.1,0h0c0.1,0,0.2,0,0.2,0.1c0,0,0.1,0,0.1,0c0,0,0,0,0,0c0,0,0,0,0,0c0,0,0,0,0,0c0,0,0,0,0,0
		c0.3,0.2,0.5,0.7,0.6,1.4c-0.1,0-0.1,0-0.1,0c-0.1,0-0.2,0.1-0.3,0.2c-0.1,0.1-0.1,0.2-0.2,0.4c0,0.2,0,0.3,0,0.5c0,0,0,0,0,0
		c0,0,0,0,0,0l0.1,0.2c0,0,0,0,0,0c0.1,0.2,0.2,0.4,0.3,0.5C81.3,17.4,81.2,17.7,81.1,18z"/>
	<path class="st2" d="M16.4,5.2"/>
</g>
</svg>
