<?xml version="1.0" encoding="utf-8"?>
<!-- Generator: Adobe Illustrator 22.0.1, SVG Export Plug-In . SVG Version: 6.00 Build 0)  -->
<svg version="1.0" id="Layer_1" xmlns="http://www.w3.org/2000/svg" xmlns:xlink="http://www.w3.org/1999/xlink" x="0px" y="0px"
	 viewBox="0 0 377.9 55.8" style="enable-background:new 0 0 377.9 55.8;" xml:space="preserve">
<style type="text/css">
	.st0{fill:#1E1E1C;}
	.st1{fill:none;stroke:#6D6C6A;stroke-miterlimit:10;}
	.st2{fill:#6D6C6A;}
	.st3{fill:#9D1A18;}
</style>
<g>
	<g>
		<path class="st0" d="M321.3,36.9h0.3l6.4,15.2h-1.7l-1-2.5h-7.6l-1,2.5h-1.6L321.3,36.9z M324.6,48.1l-2.6-6.7
			c-0.3-0.7-0.6-1.8-0.6-1.8s-0.3,1.1-0.6,1.8l-2.6,6.7H324.6z"/>
		<path class="st0" d="M330.8,47.5c0-2.7,2.1-4.8,4.7-4.8c1.6,0,2.8,0.6,3.6,1.6l-1.1,0.9c-0.6-0.7-1.3-1.2-2.5-1.2
			c-1.9,0-3.2,1.5-3.2,3.4c0,1.9,1.2,3.4,3.2,3.4c1.3,0,2.1-0.5,2.6-1.2l1.1,0.9c-0.9,1-2,1.6-3.7,1.6
			C332.8,52.2,330.8,50.1,330.8,47.5z"/>
		<path class="st0" d="M343.4,42.9h1.5l0,1.8c0.6-1.4,1.6-2,2.7-2c0.7,0,1.2,0.2,1.6,0.4l-0.6,1.3c-0.3-0.2-0.7-0.4-1.3-0.4
			c-1.3,0-2.4,0.9-2.4,3.1V52h-1.5V42.9z"/>
		<path class="st0" d="M356.3,50.9c1.4,0,2.3-0.6,2.9-1.2l0.9,0.9c-0.8,0.9-2.1,1.6-3.8,1.6c-3,0-4.9-2.1-4.9-4.7
			c0-2.7,2.1-4.8,4.7-4.8c2.9,0,4.7,2.2,4.6,5.3h-7.8C353.1,49.7,354.3,50.9,356.3,50.9z M359.1,46.8c-0.1-1.6-1.1-2.8-3-2.8
			c-1.7,0-2.9,1.1-3.2,2.8H359.1z"/>
	</g>
	<line class="st1" x1="300.4" y1="5.4" x2="300.4" y2="55.8"/>
	<g>
		<g>
			<path class="st2" d="M315.5,6.9h0.4L327,19.2l11-12.3h0.4v22.9H334v-8.5c0-1.5,0.2-4,0.2-4s-1.4,2-2.4,3.2l-4.5,5h-0.4l-4.5-5
				c-1.1-1.2-2.4-3.2-2.4-3.2s0.2,2.4,0.2,4v8.5h-4.5V6.9z"/>
			<path class="st2" d="M343.2,7.1h6.3c6.3,0,10.1,3.3,10.1,8.8s-3.8,8.7-10.1,8.7h-1.6v5.2h-4.7V7.1z M349.3,20.6
				c3.8,0,5.5-1.5,5.5-4.6c0-3.1-1.7-4.7-5.5-4.7h-1.5v9.3H349.3z"/>
			<path class="st2" d="M363.3,7.1h14.6v4.1h-9.9v7.5h9v4.2h-9v6.9h-4.7V7.1z"/>
		</g>
	</g>
	<g>
		<path class="st3" d="M217.5,23.8c0.4,0,0.9-0.5,1.5-1.5c0.7-1,1-1.7,1-2.2l0.6-2.4c0-0.2-0.1-0.3-0.3-0.3c-0.2,0-0.7,0.4-1.5,1.1
			l-1.3,1c-2.2,1.7-3.2,2.6-3.2,2.8C214.2,23.3,215.3,23.8,217.5,23.8z"/>
		<path class="st3" d="M262.7,39c11.2-9.3,19.4-18.5,24.6-27.5c0.8-1.6,1.1-2.8,1.1-3.6c0-0.9-0.1-1.5-0.4-2c-0.8-1.3-2.2-2-4.3-2
			c-2.1,0-4.2,1-6.2,2.9c-1.1,1-1.9,1.8-2.4,2.4l-2.3,2.9c-2.7,3.6-5.8,9-9.1,16.1c-1.8,3.8-3.2,7.1-4,9.9c-1.3,1.8-3.1,3.6-5.1,5.5
			c-2.3,2.1-4.2,3.5-5.5,4.2c-1.3,0.7-2.3,0.7-3.1-0.2c-0.4-0.4-0.6-1-0.6-1.7c0-0.7,0-1.3,0.1-1.7c0.5-3.7,2-7.3,4.5-10.9
			c0.3-0.5,0-0.9-0.8-1.3c-0.9-0.4-1.6-0.5-2.2-0.5c-0.3,0-2.8,2.5-7.5,7.5c-1.3,1.4-3.8,3.6-7.3,6.6c-2.2,1.7-3.8,2.6-4.8,2.6
			c-1.1,0-1.6-0.9-1.6-2.8c0-1,0.7-2.5,2-4.6c1.3-2.1,2.9-4,4.6-5.6c2.1-1.9,4.4-3.4,6.8-4.6c2.4-1.2,4.5-1.9,6.4-1.9
			s3.1,0.5,3.7,1.4c0.2,0.1,0.3,0.1,0.4,0.1s0.1-0.2,0.1-0.5c0-0.8-0.5-1.5-1.4-2.2c-1-0.7-2.1-1-3.4-1c-1.3,0-2.7,0.2-4.1,0.5
			c-1.4,0.4-3.3,1.2-5.7,2.6c-2.4,1.4-4.7,3.1-7,5.1c-1.8,1.6-3.2,3.2-4.2,4.8c-1.1,1.3-2.4,2.6-3.9,4c-2.3,2.1-4.2,3.5-5.5,4.2
			c-1.3,0.7-2.3,0.7-3-0.2c-0.4-0.4-0.6-1-0.6-1.7c0-0.7,0-1.3,0.1-1.7c0.2-1.6,1.7-5.2,4.5-10.9c0.3-0.5,0.5-0.9,0.8-1.4
			c0.1-0.2,0.1-0.4,0.2-0.6c0.1-0.2,0.3-0.6,0.5-1s0.3-0.9,0.2-1.3c-0.2-0.8-1-1.2-2.3-1.2h-0.5c-0.8,0.2-1.6,1.6-2.6,4.5
			c-0.2,0.4-0.3,0.7-0.2,1c-1.3,2-3.2,4.5-5.5,7.3c0,0,0,0,0,0c0,0,0,0,0,0c-0.9,1-2,2-3.1,3.1c-2.3,2.1-4,3.4-4.9,4
			c-1,0.6-1.7,0.8-2,0.8c-1.1,0-1.6-0.7-1.6-2.2c0-0.7,0.2-1.5,0.5-2.5c1.5-4,3.8-7.7,6.8-11.3c1.4-1.6,2.3-2.9,2.6-3.9
			c0.2-0.5,0.1-0.9-0.3-1.2c-0.4-0.2-1-0.3-1.9-0.3l-2.6,0.1c-1.6,0-3.5-0.1-5.8-0.2l2.9-4.7c1-1.8,1.2-2.7,0.6-2.7
			c-0.3,0-0.6,0.1-0.8,0.2c-0.3,0.1-0.9,0.4-1.8,0.8c-1,0.5-2.1,1.3-3.4,2.6c-1.3,1.3-2.1,2.4-2.3,3.1c-0.3,0.8-0.2,1.3,0.1,1.7
			c0.3,0.3,0.7,0.5,1.3,0.6c-0.8,1-1.7,1.9-2.6,2.8c-1.2,1.2-2.4,2.3-3.7,3.2c-1.3,1-2.7,1.8-4.1,2.3c-0.7,0.2-1.4,0.3-2,0.1
			c-0.3-0.1-0.6-0.2-0.8-0.4c0.2-0.7,0.3-1.5,0.3-2.3c0-3.6-2.1-6.8-5.3-7.5c-0.3,0-0.5-0.1-0.8-0.1c-0.1,0-0.3,0-0.4,0
			c-0.1,0-0.2,0-0.3,0c-2.1,0.1-4.3,1.2-6.7,3.2c-1.6,1.4-2.9,2.9-4.1,4.8c-0.6,0.9-1.1,1.7-1.5,2.6c0,0,0,0,0,0v0
			c-0.1,0-0.1,0.1-0.2,0.2c-1.4,2-3.3,4.1-5.6,6.2c-2.3,2.1-4.2,3.5-5.5,4.2c-1.3,0.7-2.3,0.7-3.1-0.2c-0.4-0.4-0.6-1-0.6-1.7
			c0-0.7,0.1-1.5,0.2-2.4c0.1-0.9,2.2-5.5,3.1-7.8c0.9-2.3,1.7-4,2.5-5.1c0.8-1.2,1.1-1.9,1.1-2.2c0-0.5-0.4-0.8-1.1-0.8
			c-0.7,0-2.3,0-4.3,1.3c-3.4,2.1-9.9,11.4-14.1,15.3c0.3-0.4,3.7-6.6,4.4-8.2c0.7-1.6,1.3-2.9,1.9-4c0.5-1.1,0.8-2.1,0.8-2.9
			c0-0.9-0.2-1.4-0.6-1.7c-0.4-0.3-0.9-0.4-1.3-0.4c-2.1,0-6,2.9-11.6,8.8c-2.8,2.9-5.1,5.5-6.9,7.7c2.6-7,4.2-11,4.8-12.2
			c0.5-1.2,0.8-2,0.8-2.3c0-0.5-0.4-0.9-1.1-1.1c-0.7-0.2-1.4-0.2-1.9,0c-0.9,0.3-1.5,1.3-1.8,3.1c-0.9,1.8-2.3,3.9-4,6.3
			c-0.1,0.1-0.1,0.1-0.2,0.2c-0.1,0.2-0.3,0.4-0.4,0.6c-0.1,0.2-0.2,0.3-0.4,0.5c-0.1,0.1-0.1,0.2-0.2,0.3c-3,4-7.1,7.1-12.2,9.2
			c-2,0.8-3.7,1.2-5.2,1.2c-1.4,0-2.4-0.4-3-1.1c-0.7-0.7-1-1.4-1-2.2c0-0.8,0.1-1.6,0.4-2.4c0.8-2.6,2.5-5.3,5.1-8
			c2.6-2.7,5.1-4.7,7.5-5.8c1.1-0.5,2-0.8,2.6-0.8c0.8,0,1.2,0.4,1.2,1.3c0,0.8-0.3,1.7-1,2.6c-1.6,1.9-4,3.8-7.4,5.6
			c-1.8,1-3.3,1.6-4.5,1.7c-0.1,0-0.2,0-0.4,0.1c-0.2,0.1-0.2,0.2-0.2,0.4c0.1,0.4,0.4,0.7,1.1,0.6c2-0.2,4.4-0.9,7.2-2.3
			c2.8-1.4,4.9-3,6.1-4.9c0.8-0.9,1.1-2,1.1-3.3c0-2.6-1.4-3.9-4.1-3.9c-2.4,0-5.7,1.5-9.8,4.5c-2.6,1.9-4.6,3.8-6.1,5.6
			c-0.1,0.1-0.2,0.1-0.3,0.3c-2,2.7-4.7,5.5-8,8.3c-2.2,1.7-3.9,2.5-5.2,2.5c-1.8,0-2.7-1.6-2.7-4.9c0-4.3,1.3-9.7,4-16.4
			c2.2-5.5,3.5-9,3.9-10.8c0.4-1.7,0.6-3.1,0.6-4c0-1-0.3-1.9-0.9-2.7c-0.6-0.8-1.5-1.2-2.7-1.2c-2,0-3.9,1-5.9,3.1
			c-6,6.5-11.9,14.7-17.8,24.4c-1.6,2.7-2.6,4.3-3.1,5c-0.4,0.7-1.1,2.1-1.3,2.4c-0.2,0.3-0.4,0.5-0.4,0.4c-0.1,0,0.4-1.7,0.9-3.2
			c2.7-8.3,4.1-14.7,4.1-19.1c0-3-0.7-5.6-2-7.8c-1.5-2.6-4.3-4-8.3-4h-1.1c-3,0.2-7.9,3.1-14.8,9l-4.8,4.4
			c-3,2.8-6.7,6.5-11.1,11.3c-1.4,1.6-2.8,3-3.9,4.4c0.2-0.5,0.5-1,0.7-1.5c0.6-1.1,1.3-2.8,2.2-4.9c0.9-2.1,1.7-4,2.3-5.6
			c0.6-1.6,1.4-3.9,2.5-6.8c1.1-2.9,1.9-6,2.4-9.3c1-6.2,0.1-9.6-2.9-10.2c-0.9-0.2-1.8-0.1-2.8,0.2c-2,0.5-4.9,2.9-8.7,7
			C3.2,9.8,1.4,12,0.2,13.8C0.1,13.9,0,14,0,14.2c0,0.2,0,0.4,0.2,0.7c0.2,0.3,0.4,0.2,0.7-0.2c2.4-3.2,5.4-6.4,9-9.5
			c2.3-1.9,4-2.7,5.2-2.5c1.6,0.3,2.1,2.6,1.4,6.9c-0.9,5.6-3.3,12.5-7.2,20.8c-3.1,6.8-5.1,11.3-5.9,13.5c-0.6,1.6-1,3-1.3,4.1v0
			c0,0.3,0.2,0.6,0.5,1c0.5,0.6,0.8,0.9,1.2,0.9c0.3,0,0.5-0.2,0.7-0.6c0,0,0-0.1,0.1-0.1c0.3-0.5,0.7-1.1,1-1.6l0.3-0.6v0
			c0.4-0.6,0.9-1.3,1.4-2.1c1.4-1.8,3.7-4.6,6.9-8.2c3.2-3.7,6.2-6.8,8.9-9.3l4.2-3.7c9.1-8.3,15.3-12.4,18.7-12.4
			c3.7,0,5.5,4.3,5.5,12.8c0,2.4-0.3,5.5-0.9,9.3c-0.6,3.8-1.9,8.3-3.2,11.6c-0.1,0.1-0.1,0.3-0.1,0.6c0,0.3,0.2,0.9,0.7,1.6
			c0.5,0.7,0.9,1.1,1.3,1.1c0.4,0,0.8-0.4,1.2-1.3c2-4.1,5.7-10.7,10.6-17.8c4.9-7.2,9.3-12.4,13.2-15.8c1.1-0.9,1.8-1.4,2.4-1.4
			c0.5,0,0.9,0.1,1.2,0.3c0.3,0.2,0.5,0.6,0.5,1.2c0,0.6-0.2,1.3-0.5,2.1c-0.3,0.8-1.1,2.9-2.4,6.1c-0.4,0.9-0.9,2.2-1.5,3.9
			c-0.6,1.7-1.1,3.2-1.5,4.4c-0.4,1.3-0.9,3.1-1.5,5.4c-0.6,2.3-0.9,4.7-0.9,7.2c0,4.8,1.7,7.1,5,7.2c1,0,1.9-0.2,3-0.5
			c2.1-0.7,4.8-2.8,8.2-6.4c0.5-0.5,0.9-1,1.3-1.4c0,0.1-0.1,0.2-0.1,0.3c-0.2,0.8-0.3,1.6-0.3,2.3c0,1.2,0.3,2.2,0.8,3.1
			c1.5,2.2,4,3.3,7.6,3.3c4.2,0,8.6-1.9,13.1-5.7c1.7-1.4,3.2-3,4.4-4.7c0.8-0.9,1.8-2.1,2.8-3.7c-2.9,8.5-4.5,12.8-4.6,13.1
			c-0.2,0.3-0.2,0.5-0.2,0.7c0,0.2,0.2,0.2,0.7,0.2c0.5,0,1.6-0.5,3.4-1.4c0.4-0.3,2.1-2.4,5.1-6.4c-0.6,0.7,1.2-2.9,7-8.3
			c2.4-2.1,4-3.1,4.9-3.1c0.4,0,0.6,0.2,0.6,0.6c0,0.4-3.9,7.5-5.6,10.8s-2.7,5.5-2.8,6.4c-0.1,0.9,0.5,1.3,1.6,1.1
			c1.1-0.2,3.6-1.9,4.1-3.1c0,0,7-8.8,9.3-11.3c1.5-1.8,3-4.4,5-5.2c-0.6,0.9-1.3,2.5-2.2,4.8c-0.9,2.4-3,7.8-3,10.1
			c0,0.8,0.1,1.5,0.4,2.3c0.3,0.8,0.9,1.4,2,2c1.1,0.6,2.8,0.5,5.1-0.3c2.2-0.8,4.9-2.9,8.1-6.4c0.8-0.8,1.4-1.6,2-2.3
			c0.9-1.1,1.6-2.1,2.1-2.9c0.1-0.1,0.1-0.3,0.1-0.4c0,0,0,0,0,0c0,0.1-0.1,0.3-0.1,0.4c-0.5,0.8-1.1,1.8-2.1,2.9
			c-0.2,0.9-0.3,1.8-0.3,2.8c0,2.7,0.9,4.6,2.6,5.7c0.9,0.7,2,1,3.4,1c2.4,0,4.6-0.8,6.6-2.5c1-0.9,1.9-1.9,3-2.9l1.4-1.9
			c1.2-1.7,2.1-3.2,2.7-4.5c0.3,0.2,0.7,0.3,1.1,0.4c1.1,0.2,2.1,0,3-0.2c1.8-0.6,3.3-1.6,4.6-2.7c1.4-1.1,2.6-2.2,3.8-3.5
			c1.1-1.1,2.4-2.7,3.4-4h0.1c0.9,0,2.1,0.1,3.5,0.4c1.5,0.3,2.3,0.7,2.5,1.3l0.2,0.7c0,0.3-0.3,0.9-1,1.8l-0.5,0.8
			c-0.2,0.2-0.4,0.5-0.8,0.8c-4.4,4.5-6.6,8.4-6.6,11.4c0,3.1,1.3,4.6,3.9,4.6c2.1,0,4.1-0.7,5.9-2.1c1.9-1.3,3.8-3,5.7-5.1
			c0.8-0.9,1.6-1.7,2.2-2.5c0,0,0.1-0.1,0.1-0.1c0.1-0.1,0.1-0.2,0.2-0.3c0.9-1.1,1.4-1.8,1.6-2.2c-1.6,3.6-2.4,6.2-2.4,8
			c0,0.5,0.1,0.9,0.2,1.3c0.7,1.9,2,2.9,4,2.9c0.9,0,1.9-0.2,3.2-0.7c2.2-0.8,4.9-2.9,8.1-6.4l0,0c0,0.2,0,0.4,0,0.6
			c0,1,0.3,2,1,2.8c0.7,0.9,1.5,1.6,2.4,2c0.9,0.5,1.8,0.7,2.6,0.7c1.8,0,3.7-0.9,5.9-2.6c2.2-1.8,4.1-3.6,5.8-5.5
			c1.7-1.9,2.6-2.9,2.8-3c-1,2.5-1.4,4.9-1.4,7.2c0,0.8,0.1,1.4,0.2,2c0.7,1.9,1.9,2.9,3.9,2.9c2,0,4.2-0.9,6.6-2.6
			c1.3-0.9,3.1-2.6,5.5-5.2c0.4-0.5,0.8-0.9,1.2-1.3c-0.2,1.1-0.4,2.1-0.4,3v0.5c0,3.7,1.9,5.6,5.7,5.6c1.7,0,3.3-0.6,5-1.9
			c1.7-1.2,3.5-2.9,5.6-5c2-2.1,3.4-3.9,4.2-5.2c0.2-0.7,0.1-1-0.4-1c-0.2,0-0.4,0.1-0.5,0.2c-1.3,1.8-3,3.7-5.4,5.9
			c-2.3,2.1-4.2,3.6-5.7,4.4c-2,1.2-3.4,1.1-4.3-0.3c-0.5-0.8-0.8-1.7-0.8-2.7c0-1,0-1.8,0.1-2.3C261.7,41.9,262.1,40.7,262.7,39z
			 M270.4,22c3.8-6.7,7.7-11.7,11.7-14.8c1.1-0.8,1.9-1.2,2.6-1.2c0.9,0,1.3,0.5,1.3,1.6c0,0.6-0.3,1.5-0.9,2.6
			c-2.2,4.2-5.4,8.9-9.7,14.3c-4.3,5.3-8.2,9.2-11.7,11.6C265.2,32.1,267.4,27.5,270.4,22z M173.1,34.9
			C173.1,35,173.2,35,173.1,34.9c0,0.1,0.1,0.1,0.1,0.1l0.2,0.3c0,0,0,0,0,0c0.2,0.4,0.4,0.8,0.7,1.2c-0.1,0.7-0.3,1.3-0.5,1.8
			c0,0,0,0.1-0.1,0.1c-0.2,0.6-0.5,1.2-0.8,1.9l-1.7,2.9c-1.2,1.7-2.5,3.1-3.9,4.2c-1.5,1.1-2.8,1.7-4,1.7c-1.2,0-2.1-0.4-2.5-1.3
			c-0.5-0.9-0.7-1.7-0.7-2.4c0-0.7,0.1-1.3,0.2-1.8c0.5-2.8,1.8-5.6,3.9-8.3c0.4-0.5,0.7-0.9,1.1-1.4c2.8-3.2,5-4.8,6.8-4.8
			c0.1,0,0.1,0,0.2,0h0c0.2,0,0.4,0.1,0.5,0.1c0.1,0,0.2,0,0.3,0c0,0,0.1,0,0.1,0c0,0,0,0,0,0c0,0,0.1,0,0.1,0.1c0,0,0.1,0,0.1,0.1
			c0.6,0.5,1.1,1.4,1.2,3c-0.1,0-0.2,0-0.3,0.1c-0.2,0.1-0.4,0.2-0.6,0.4c-0.2,0.2-0.3,0.5-0.4,0.8C173,34.2,173,34.5,173.1,34.9z"
			/>
	</g>
</g>
</svg>
