<?xml version="1.0" encoding="utf-8"?>
<!-- Generator: Adobe Illustrator 22.0.1, SVG Export Plug-In . SVG Version: 6.00 Build 0)  -->
<svg version="1.1" id="Layer_1" xmlns="http://www.w3.org/2000/svg" xmlns:xlink="http://www.w3.org/1999/xlink" x="0px" y="0px"
	 viewBox="0 0 39.3 39.3" style="enable-background:new 0 0 39.3 39.3;" xml:space="preserve">
<style type="text/css">
	.st0{fill:#BE1622;}
	.st1{fill:#FFFFFF;}
</style>
<g>
	<path class="st0" d="M0,19.6C0,8.8,8.8,0,19.6,0c10.8,0,19.6,8.8,19.6,19.6s-8.8,19.6-19.6,19.6C8.8,39.3,0,30.5,0,19.6z M2,19.6
		c0,9.7,7.9,17.6,17.6,17.6c9.7,0,17.6-7.9,17.6-17.6C37.3,9.9,29.4,2,19.6,2C9.9,2,2,9.9,2,19.6z"/>
	<polygon class="st1" points="23,8.2 25.6,10.7 16.6,19.6 25.6,28.6 23,31.1 11.6,19.6 	"/>
</g>
</svg>
